<?xml version="1.0" encoding="utf-8"?>
<!-- Generator: Adobe Illustrator 21.1.0, SVG Export Plug-In . SVG Version: 6.00 Build 0)  -->
<svg version="1.1" id="Layer_1" xmlns="http://www.w3.org/2000/svg" xmlns:xlink="http://www.w3.org/1999/xlink" x="0px" y="0px"
	 viewBox="0 0 512 512" style="enable-background:new 0 0 512 512;" xml:space="preserve">
<style type="text/css">
	.st0{fill:#FF0000;}
</style>
<g>
	<g>
		<path class="st0" d="M414.3,246.9c3.6-1.8,7.3-4.1,7.7-8.2c0.4-3.9-2.6-6-6.7-7.3c-2.8,1.6-6.5,3.7-6.7,7.5
			C408.2,242.6,411.4,245.3,414.3,246.9z M198.7,283.7c6-3,9-8.1,8.9-13.3c0-5.2-2-8.8-6.5-12.3c-6,3-9,8.1-8.9,13.3
			C192.2,276.6,194.1,280.1,198.7,283.7z M313.3,359.4l18.9-3.3c-3.1,4.5-5.2,9.1-6.2,13.8c-1,4.7-1,9.5-0.2,14.6l8.6-1.5
			c-1-5.5-1-10.5-0.1-15.2c0.9-4.7,3-9.3,6.2-13.8l-1.1-6.2l-27.4,4.8L313.3,359.4z M330.3,351.3c0.1,0,0.1,0.2,0.2,0.3
			c-0.1,0.1-0.1,0.2-0.2,0.3c-0.1-0.1-0.2-0.2-0.3-0.3C330.1,351.4,330.2,351.3,330.3,351.3z M315.9,354.6c0.1,0,0.1,0,0.1,0
			c0,0,0,0.1,0,0.2c-0.1,0-0.2,0-0.2-0.1C315.8,354.7,315.8,354.7,315.9,354.6z M93.1,302.3c6-3,9-8.1,8.9-13.3
			c0-5.2-2-8.8-6.5-12.3c-6,3-9,8.1-8.9,13.3C86.6,295.2,88.5,298.7,93.1,302.3z M294.4,364.6l4.4,24.8l8.4-1.5l-5.9-33.3l-6.9,1.2
			c-0.6,1.4-1.9,2.8-3.8,4.3c-1.9,1.5-3.7,2.5-5.4,3.1l2.1,7C289.8,369.3,292.2,367.4,294.4,364.6z M298.2,373.5
			c0,0,0.1,0.1,0.1,0.1c-0.1,0.1-0.1,0.2-0.2,0.2c0,0-0.1-0.1-0.1-0.1C298.1,373.7,298.2,373.6,298.2,373.5z M287.2,242
			c-2.9,0.5-5.7,1.9-8,4c-2.2,2.1-4.2,5.5-4.4,9.5c5-0.9,7.6-2.3,9.7-4.3C286.3,249.4,287.9,246.1,287.2,242z M237.6,276.8
			c5-2.2,9.2-5.5,11-9.8c1.9-4.2,2.1-10.3-1.7-14.5l-11.9,11.2c-0.3,3.1-0.2,7,0.2,8.6C235.9,274.7,236.8,276.1,237.6,276.8z
			 M244.7,266.9c0,0,0,0.1,0,0.1c0,0-0.1,0-0.1,0C244.6,266.9,244.6,266.9,244.7,266.9z M274.1,67.3c-0.3-0.3-0.6-0.7-0.6-1
			c0-0.3,0-0.6,0-1l-113,19.9c-2.5,1.4-4.9,2.8-7.4,4.3L275.2,68C274.8,67.8,274.5,67.5,274.1,67.3z M175.8,84.4
			c-0.9-0.1-1.2-0.7-1.2-1.7C176,83.3,176,83.4,175.8,84.4z M416.6,223.1c2.7-1.8,5.1-3.9,5.3-6.6c0.3-3.5-2.1-5.4-4.9-6.5
			c-3,1.4-6.1,3.1-6.4,6.8C410.5,219.9,413.6,221.9,416.6,223.1z M187.5,415c-0.2-1.1,0.2-1.7,1.2-2.1l-0.2-1.2l-41,7.2
			c1.2,0.8,2.4,1.6,3.7,2.4l20.5-3.6c-0.1,0-0.2-0.1-0.2-0.1c0,0,0-0.1,0.1-0.2c0.1,0,0.2,0.1,0.3,0.1c0,0,0,0.1-0.1,0.1L187.5,415z
			 M173.7,415c0.1-0.2,0.2-0.3,0.4-0.4c0.1,0,0.3,0.1,0.3,0.1c0,0.2,0,0.4-0.1,0.5c-0.1,0.1-0.3,0.2-0.5,0.3c0,0-0.1-0.1-0.1-0.1
			C173.6,415.2,173.6,415.1,173.7,415z M184.6,389.6l-25.7,4.5c0,0.2,0.1,0.3,0.1,0.5c0,0.5-0.4,0.9-1.1,0.7c-0.2-0.3-0.3-0.6-0.3-1
			l-33.8,6c0.9,0.9,1.9,1.7,2.8,2.5l58.5-10.3L184.6,389.6z M146.9,397.6c-0.1,0.2-0.3,0.5-0.5,0.6c-0.4,0.2-0.9,0.2-1.5,0.4
			c0.3-1.1,1-1.3,1.7-1.5c0.1,0,0.3,0.1,0.3,0.2C146.9,397.4,146.9,397.5,146.9,397.6z M390.2,398.2
			C390.2,398.1,390.2,398.1,390.2,398.2l-16.2,2.8c-0.1,0.2-0.3,0.3-0.4,0.5c-0.3,0.3-0.7,0.5-1.1,0.7c-0.4-0.3-0.3-0.6-0.1-0.8
			c0,0,0.1-0.1,0.1-0.1l-195,34.4c1.7,0.7,3.4,1.5,5.1,2.2L388,401.5c1.1-1,2.1-2,3.2-2.9C390.6,398.7,390.4,398.5,390.2,398.2z
			 M391.4,398.3c0.2-0.2,0.4-0.4,0.6-0.5l-0.7,0.1C391.3,398,391.4,398.2,391.4,398.3z M221.9,382.1c-0.4-2.2-0.2-4,0.5-5.3
			c0.7-1.3,1.8-2.1,3.4-2.4c1.4-0.3,2.6,0,3.5,0.6c0.9,0.7,1.5,1.7,1.7,3c0.4,2.4-0.4,5.2-2.4,8.3c-2,3.2-5.5,7-10.5,11.5l1,5.6
			l25-4.4l-1.2-6.6l-7.8,1.4c-2.3,0.4-4.5,0.9-6.7,1.4l0-0.1c4.3-3.6,7.3-6.9,9.2-9.9c0.8-1.4,1.4-2.8,1.8-4.2c0,0,0,0.1,0,0.1
			c-0.2,0.7-0.7,1.3-1.1,1.8c-0.4,0.5-0.9,0.6-1.5,0.4c-0.4-0.1-0.6-0.3-0.7-0.7c-0.1-0.5-0.1-1.1,0.3-1.6c0.4-0.5,0.7-1,1.1-1.4
			c0.7-0.3,1.5-0.5,2.2-0.8c0.1-1,0-2-0.1-3c-0.3-1.8-1.1-3.5-2.3-5c-1.2-1.5-2.8-2.5-4.9-3.2c-2.1-0.7-4.5-0.8-7.3-0.3
			c-3.8,0.7-6.8,2.2-8.8,4.6c-2.1,2.4-2.8,5.4-2.2,9L221.9,382.1z M231.5,384.1c0-0.2,0.2-0.4,0.4-0.4c0.1,0,0.4,0.1,0.5,0.2
			c0.2,0.3,0.4,0.7,0.6,1.2c-0.1,0.2-0.2,0.5-0.4,0.6c-0.2,0.1-0.5,0-0.7-0.2C231.5,385,231.4,384.5,231.5,384.1z M223.8,373.3
			c0.1,0.2,0.1,0.4,0.1,0.6c-0.3,0-0.5,0.1-0.6,0.1c-0.4,0-0.7-0.2-0.7-0.6c0-0.2,0.2-0.3,0.4-0.4
			C223.4,372.7,223.7,372.9,223.8,373.3z M220.8,370c0.4-0.3,0.8-0.6,1.2-0.7c0.3-0.1,0.7,0.2,1.2,0.3c-0.7,0.9-1.3,1.3-2.1,1.2
			c-0.2,0-0.4-0.2-0.4-0.3C220.7,370.4,220.7,370.1,220.8,370z M226.2,449.8l90.3-15.9c-0.1-0.1-0.2-0.3-0.2-0.4
			c0-0.2,0.2-0.4,0.4-0.7c0.2,0.2,0.4,0.3,0.5,0.5c0,0.2,0,0.3,0,0.5l33.9-6c2.5-1.4,5.1-2.9,7.5-4.4l-141.1,24.9
			C220.5,448.9,223.3,449.4,226.2,449.8z M301,434.2c0.4,0,0.8,0.1,1.1,0.3c0.2,0.1,0.4,0.4,0.4,0.7c0,0.2-0.2,0.5-0.4,1
			c-0.8-0.6-1.3-0.9-2-1.4C300.6,434.5,300.8,434.2,301,434.2z M439.9,325.3c0.4-1.1,0.8-2.2,1.2-3.3l-75.2,13.3l0.5,3L439.9,325.3z
			 M391.8,263.6c-0.1,0-0.1,0-0.1,0c0,0-0.1,0.1-0.1,0.1c0,0,0.1,0.1,0.1,0.1C391.7,263.7,391.7,263.7,391.8,263.6z M374.1,382.1
			l37.8-6.7c0.9-1.2,1.8-2.3,2.6-3.5l-41,7.2L374.1,382.1z M409.8,349.9l-40.1,7.1l0.5,3l58.5-10.3c0.6-1.1,1.2-2.2,1.8-3.4
			l-18.1,3.2C411.7,350.3,411,350.4,409.8,349.9z M252.4,372.8c0,0.2,0,0.3,0,0.3c-0.6,0.8-1.4,1.6-1.7,2.6c0,0.1-0.2,0.1-0.6,0.2
			c0.1,1.5,0.2,3,0.5,4.7c2,11.4,7.6,16.3,16.9,14.7c8.4-1.5,12.1-7,11.2-16.7c-0.2-0.2-0.3-0.5-0.4-0.8c-0.2-0.8-0.3-1.6,0-2.4
			c-2-11.3-7.6-16.1-16.8-14.5c-7.6,1.3-11.4,6.1-11.3,14.2c0.3-1.1,0.6-2,0.9-2.8C251.7,372.2,252,372.7,252.4,372.8z M271.1,376.5
			c0.1-0.2,0.4-0.5,0.6-0.5c0.2,0,0.6,0.2,0.7,0.4c0.6,1.2,1.2,2.4,1.8,3.6c0.1,0.1,0.1,0.3,0.1,0.5c-0.1,0.2-0.2,0.4-0.3,0.6
			c-0.3,0.3-0.6,0.2-0.9,0c-1-0.8-1.6-2-2-3.2C270.8,377.5,270.9,376.9,271.1,376.5z M267.7,369.9l0,0.1l-0.1,0L267.7,369.9z
			 M259,370.9c0.5-1.8,1.7-2.8,3.6-3.1c1.8-0.3,3.3,0.2,4.4,1.7c1.1,1.5,2,4.1,2.6,7.8c0.4,2.5,0.6,4.6,0.5,6.2
			c0.2,0.8,0.3,1.4,0.4,2c0.1,0.4-0.2,0.7-0.6,0.7c-0.1,0-0.3,0-0.4-0.1c-0.6,1.4-1.7,2.2-3.3,2.5c-1.9,0.3-3.3-0.2-4.4-1.7
			c-1.1-1.5-2-4.1-2.6-7.8C258.6,375.4,258.5,372.7,259,370.9z M168.8,371.3c1.2-0.5,1.5-0.4,2,0.6c0.2,0.3,0.3,0.6,0.3,0.9
			l10.2-1.8l-0.5-3l-75.2,13.3c0.7,0.9,1.5,1.8,2.2,2.6l60.5-10.7C168.5,372.6,168.6,371.9,168.8,371.3z M118,380.2
			c-0.2,0-0.4-0.1-1-0.3c0.6-0.1,0.8-0.2,1.1-0.2c0.1,0,0.2,0.1,0.3,0.2C118.2,380,118.1,380.2,118,380.2z M168.7,136.6l4.1,23
			l6-1.1l-4.1-23L168.7,136.6z M224.4,137.7l0.7,4.1l5.7-1l0.1,0.3c0.2,1.2-0.1,2.3-0.8,3.1c-0.8,0.8-1.8,1.3-3.3,1.6
			c-3.8,0.7-6.1-1.4-6.9-6.3c-0.4-2.4-0.3-4.2,0.5-5.6c0.7-1.3,1.8-2.1,3.4-2.4c0.2-0.2,0.4-0.4,0.7-0.5c0,0,0.3,0.2,0.3,0.2
			c0,0-0.1,0.1-0.1,0.1c0.9-0.1,1.8,0,2.5,0.4c0.9,0.4,1.5,1.2,2,2.3l5.2-3.2c-1.3-1.9-2.8-3.2-4.6-3.8s-4-0.7-6.6-0.3
			c-2.4,0.4-4.3,1.3-5.9,2.5c-1.6,1.3-2.6,2.9-3.3,4.8c-0.6,1.9-0.7,4.2-0.3,6.6c0.4,2.5,1.3,4.5,2.5,6.2c1.2,1.6,2.7,2.7,4.5,3.4
			c1.8,0.6,3.7,0.8,5.8,0.4c3.1-0.5,5.1-2,6.1-4.2l0.7,2.7l4.2-0.7l-2.2-12.5L224.4,137.7z M198.8,131.3l2,11.6l0.9,4.3l0,0
			l-2.4-3.2l-9.4-11.2l-6.7,1.2l4.1,23l5.3-0.9l-2-11.6l-0.9-4.3l0,0l2.4,3.2l9.4,11.2l6.7-1.2l-4.1-23L198.8,131.3z M205.3,146.5
			c0.2,0.2,0.4,0.3,0.5,0.5c0.1,0.2,0.1,0.5,0.1,0.7c-0.1,0.3-0.5,0.1-0.7-0.4c-0.1-0.2-0.2-0.5-0.2-0.7
			C205.1,146.6,205.2,146.5,205.3,146.5z M110.1,146.9l-1.6,0.3c0,0.3,0.1,0.6,0.1,0.9c0.2,1.2-0.5,1.9-1.6,1.7
			c-0.2,0-0.5-0.2-0.7-0.4c-0.3-0.4-0.5-1.1-0.5-1.8l-16.8,3l0.8,4.6l7.5-1.3l0.4,2c0,0,0,0,0,0c0.1,0.2,0.2,0.4,0.1,0.6l2.8,15.7
			l6-1.1l-3-17c-0.1,0-0.1,0-0.2,0c-0.1,0-0.3-0.3-0.3-0.4c0-0.3,0.2-0.4,0.3-0.5l-0.1-0.5l7.5-1.3L110.1,146.9z M369,120.2
			l-0.8-4.7l9.5-1.7l-0.8-4.4l-9.5,1.7l-0.8-4.7l11.9-2.1l-0.8-4.6l-0.5,0.1c0.3,0.2,0.3,0.5,0.2,0.7c-0.3,0.4-0.7,0.3-1.1,0.2
			c-0.3-0.1-0.6-0.2-1-0.3c0-0.1,0-0.2,0-0.2l-15.5,2.7l3.4,19.4c0-0.3,0.1-0.6,0.1-1c-0.1-1.1,0.4-1.5,1.4-1.6c0.2,0,0.4,0,0.6,0
			c0.2,0,0.4,0,0.7,0.1c0,0.9,0.1,1.7,0.2,2.6c0.1,0.9,0.3,1.7,0.4,2.6c0,0.2,0,0.4-0.1,0.5l11.9-2.1c0,0-0.1-0.1-0.1-0.1
			c-0.2-0.4,0-0.9,0.4-0.9c0.3,0,0.7,0.2,1.2,0.4c-0.2,0.2-0.3,0.3-0.4,0.4l2.7-0.5l-0.8-4.6L369,120.2z M363.1,103.9
			c0.1,0.2,0.2,0.3,0.2,0.5c0,0.1-0.2,0.2-0.3,0.3c-0.1-0.2-0.3-0.3-0.3-0.5C362.8,104.1,363,104,363.1,103.9z M362,111.9
			c-0.1-0.5-0.2-1.1-0.2-1.6c0-0.2,0.3-0.4,0.4-0.6c0.2,0,0.4,0,0.5,0.1c0.7,0.5,1,1.3,0.6,2.1c-0.1,0.2-0.5,0.4-0.8,0.4
			C362.4,112.4,362.1,112.1,362,111.9z M364,117.9c-0.4-1.4-0.8-2.6-1.1-3.9c0.2-0.1,0.5-0.3,0.7-0.3c0.2,0,0.6,0.3,0.6,0.4
			c0.2,1.1,0.4,2.1,0.5,3.2C364.7,117.5,364.3,117.7,364,117.9z M349.1,123.1c-0.6,0.7-1.6,1.2-2.9,1.4c-1.7,0.3-3.1-0.1-4.2-1.1
			c-1.1-1.1-1.9-2.8-2.3-5.1c-0.4-2.3-0.3-4.2,0.5-5.6c0.1-0.2,0.3-0.4,0.4-0.6c-0.5-0.8-0.6-1.7-0.5-2.6c0-0.2,0.3-0.4,0.6-0.5
			c0.4-0.1,0.8,0,1,0.4c0.2,0.4,0.3,0.9,0.4,1.4c0.5-0.3,1.1-0.5,1.7-0.6c1.2-0.2,2.2-0.1,3,0.3c0.6,0.3,1.1,0.9,1.6,1.7
			c-0.1-1.3,0.1-2.6-0.9-3.6c0.3-0.1,0.6-0.2,0.7-0.1c0.3,0.2,0.8,0.4,0.9,0.8c0.4,1,0.6,2.1,0.1,3.2c-0.1,0.1-0.3,0.2-0.6,0.3
			c0.1,0.2,0.2,0.3,0.3,0.5l4.9-3.1c-0.9-2-2.4-3.4-4.3-4.2c-1.9-0.8-4.2-0.9-6.7-0.5c-2.3,0.4-4.2,1.2-5.8,2.5s-2.6,2.8-3.2,4.8
			c-0.6,2-0.7,4.2-0.2,6.6c0.4,2.5,1.3,4.5,2.5,6.1c1.2,1.6,2.8,2.8,4.6,3.4c1.9,0.6,4,0.8,6.3,0.3c2.5-0.4,4.6-1.4,6.2-2.9
			c1.6-1.5,2.5-3.4,2.7-5.9l-5.7-0.6C350.1,121.3,349.7,122.4,349.1,123.1z M350.7,108.3c1,0,2,1,1.8,2c0,0.2-0.2,0.3-0.4,0.5
			c-0.9-0.4-1.5-0.9-1.8-1.7C350.1,108.8,350.4,108.3,350.7,108.3z M336.2,120.1c-0.2-0.2-0.4-0.3-0.6-0.5c-0.1-0.1,0.1-0.3,0.2-0.4
			c0.2,0.1,0.4,0.3,0.6,0.4C336.4,119.6,336.3,119.8,336.2,120.1z M337.7,110.4c-0.2,0.1-0.4,0.1-0.6,0c-0.4-0.1-0.8-0.2-0.8-0.7
			c0-0.1,0.1-0.3,0.2-0.3c0.4-0.2,0.8-0.2,1.1,0.1c0.1,0.1,0.3,0.3,0.6,0.6C338,110.1,337.9,110.3,337.7,110.4z M341.3,126.5l0-0.1
			l0.2,0L341.3,126.5z M343.5,127.4c-0.2,0.1-0.5,0-0.7-0.1c0,0,0-0.4,0.1-0.5c0.4-0.5,0.8-1.1,1.8-1
			C344.6,126.6,344.2,127.1,343.5,127.4z M346.3,125.2c0,0-0.1,0-0.2,0c0-0.1,0-0.1,0.1-0.2c0,0,0.1,0,0.1,0
			C346.4,125.2,346.3,125.2,346.3,125.2z M136.2,163.6c-1.3,0.6-2.6,1.1-3.4,2.4c-0.1,0.1-0.2,0.2-0.4,0.3l0.2,0.5l6.2-1.1l-2.1-3.7
			C136.8,162.5,136.3,163,136.2,163.6z M291,134l-3.1-17.6c-0.3-0.2-0.5-0.4-0.8-0.6c0,0-0.1,0-0.1-0.1l-5.3,0.9l4.1,23l17.6-3.1
			l-0.8-4.6L291,134z M290.7,137.8c-0.8,0.1-1.6,0.2-2.6,0.3c0.2-0.4,0.2-0.7,0.3-0.9c0.9-0.8,1.2-0.9,2.9-1
			C291,136.9,290.9,137.3,290.7,137.8z M162,137.8l-6.7,1.2l-6.4,11.7l-1.8-10.2l-6,1.1l4.1,23l6-1.1l-1.1-6.5l2.2-3.9l7.5,8.9
			l6.8-1.2l-10.7-12.2L162,137.8z M497.7,236.2c0,0-0.1-0.1-0.1-0.1c0-0.1,0.1-0.2,0.1-0.3c0-0.5-0.1-1-0.1-1.4
			c-0.3-0.2-0.6-0.5-0.8-0.7c0.1-0.2,0.1-0.5,0.2-0.6c0.1-0.2,0.3-0.4,0.5-0.5c-0.6-6.2-1.5-12.3-2.5-18.5
			C477.2,114,400.3,39.2,306.5,19.3c0,0,0,0,0,0c-0.1,0.2,0,0.6,0.1,0.9c0.1,0.4,0.4,0.7,0.5,1.1c0,0.3-0.2,0.6-0.4,0.8
			c-0.1,0.1-0.2,0.1-0.3,0.1c1.1,0.2,2.3,0.5,3.4,0.7c30.1,6.9,58.3,19.4,83.7,37.3c11.7,8.2,22.6,17.3,32.5,27.3
			c1,0.2,1.9,0.7,2.8,1.4c0.4,0.3,0.4,0.9,0.1,1.3c0,0.1-0.1,0.1-0.2,0.2c0.8,0.8,1.6,1.7,2.4,2.5c0-0.2-0.1-0.4-0.1-0.6
			c-0.1-0.7,0.2-1.1,0.7-1.3c0.8-0.3,1.6-0.2,1.8,0.5c0.2,0.9,0.8,1.5,1.2,2.3c0.5,0.9,0.3,1.5-0.6,2.1c-0.1,0-0.1,0.1-0.2,0.1
			c0.4,0.4,0.8,0.9,1.2,1.3c0.3-0.2,0.7-0.4,1-0.5c0.3-0.1,0.7,0,0.9,0.3c0.1,0.2,0,0.5-0.1,0.7c-0.2,0.3-0.4,0.5-0.6,0.8
			c7.5,8.6,14.4,17.8,20.7,27.4c17.4,26.9,29,56.6,34.6,88.4c0.1,0.3,0.1,0.7,0.2,1c0,0,0,0,0,0c0.1,0,0.2,0,0.3,0
			c0,0.1,0,0.2-0.1,0.3c-0.1,0-0.1-0.1-0.2-0.1c1.1,6.2,1.9,12.3,2.4,18.5c0.2,0.1,0.3,0.2,0.5,0.3c-0.1,0.1-0.2,0.3-0.4,0.6
			c1.1,11.9,1.2,23.8,0.5,35.7c0-0.1,0.1-0.1,0.1-0.2c0.4-0.4,0.8-0.7,1.3-1c0.6-0.3,1.2,0.1,1.4,0.9c0,0.1,0,0.4-0.1,0.5
			c-0.4,0.4-0.9,0.8-1.4,1.2c-0.4,0.2-1,0-1.2-0.4c0-0.1-0.1-0.1-0.1-0.2c-0.5,7.7-1.4,15.3-2.6,22.9c0.8-0.7,1-0.5,2,0.3
			c0,0.1,0,0.1,0,0.2c-0.2,0.9-0.2,2-1.3,2c-0.5,0-0.8-0.3-1-0.7c-0.8,4.4-1.6,8.9-2.6,13.3c-4.7,20.6-12.1,40.3-22,58.8
			c0.1,0,0.3-0.1,0.4-0.1c0,0,0,0,0,0.1c-0.2,0-0.3,0.1-0.5,0.1c0,0.1-0.1,0.2-0.1,0.2c0.1,0.2,0.3,0.4,0.2,0.5
			c0,0.3-0.2,0.6-0.5,0.8c-0.2,0.2-0.4,0.2-0.7,0.3c-4.3,7.9-9,15.5-14.2,23c-17.8,25.4-40,46.8-65.9,63.6
			c-26.9,17.4-56.6,29-88.4,34.6c-31.8,5.6-63.7,4.8-94.9-2.3c-28-6.4-54.4-17.8-78.4-33.7c-0.1,0.3-0.3,0.7-0.6,1.2
			c-0.6-0.6-0.7-1.2-0.5-2c-1.4-0.9-2.8-1.9-4.1-2.8c-10-7-19.3-14.6-28-22.9c-0.3,0.1-0.6,0.2-0.9,0.3c-0.4,0.2-0.7,0.6-1,0
			c-0.2-0.4,0.2-0.6,0.5-0.8c0.2-0.1,0.4-0.3,0.6-0.4c-3.2-3-6.2-6.1-9.2-9.3c0,0.1,0,0.1-0.1,0.2c-0.1,0-0.2,0-0.3-0.1
			c0-0.1,0.1-0.2,0.1-0.3c0,0,0.1,0,0.1,0c-9.4-10.1-17.8-21-25.4-32.6c-17.4-26.9-29-56.6-34.6-88.4c-5.6-31.8-4.8-63.7,2.3-94.9
			c6.9-30.1,19.4-58.3,37.3-83.7c8.3-11.8,17.5-22.7,27.5-32.7c-0.1,0-0.1,0.1-0.2,0.1c-0.7-0.7-1-1.3-0.5-2.2
			c0.2-0.4,0.4-0.9,0.6-1.3c0.6-1,1-1.2,2.2-1.1c0.9,0.1,1.3,0.8,0.9,1.6c10.9-10.4,22.7-19.8,35.4-28c26.9-17.4,56.6-29,88.4-34.6
			c4.5-0.8,8.9-1.4,13.4-2c0,0,0-0.1,0-0.1c0.1-0.5,0.5-0.8,1.1-0.7c0.2,0.2,0.2,0.4,0.3,0.6c2.6-0.3,5.3-0.6,7.9-0.8c0,0,0,0,0,0
			c-0.2-0.4-0.3-0.9-0.5-1.3c-0.2-0.4-0.4-0.8-0.6-1.2c1.1-0.2,1.9,0,2.7,0.9c0.5,0.6,1.2,1.2,2.1,1.1c0.2,0,0.4,0.2,0.7,0.3
			c13.2-0.8,26.4-0.5,39.5,0.8c-0.3-0.4-0.5-0.9-0.3-1.3c0.2-0.6,0.8-0.8,1.2-0.3c0.2,0.3,0.4,0.7,0.5,1c-0.1,0.3-0.1,0.5-0.2,0.7
			c1.4,0.2,2.8,0.3,4.3,0.5c0,0,0,0,0,0c0.1-0.8,0.6-1,1-1.4c0.8,0.6,1.2,1.1,1.3,1.8c5.5,0.8,11.1,1.7,16.6,2.9
			c-0.1,0-0.1-0.1-0.2-0.2c-0.4-0.7-1.4-1-1.5-2.1c-0.1-0.7-0.8-0.9-1.3-1.1c-0.2-0.1-0.5-0.2-0.7-0.4c-28.2-5.4-57.9-5.9-87.9-0.7
			C167.3,26.1,125.8,47.5,93,77.7c-0.1,0.4-0.3,0.7-0.7,0.9c-0.1,0.1-0.3,0.1-0.4,0.2c-9.1,8.4-17.4,17.5-25.1,27.2
			c0,0.2,0.1,0.3,0.1,0.5c0,0.1-0.2,0.1-0.3,0.2c0-0.1-0.1-0.2-0.1-0.2c-0.4,0.6-0.9,1.1-1.3,1.7c0,0.2-0.1,0.4-0.3,0.4
			c-40,52-58.9,120-46.6,189.7c12.8,72.4,56.5,131.6,115.2,166.3c0,0,0-0.1,0.1-0.1c0.3-0.2,0.6-0.2,0.9,0.2
			c0.1,0.2,0.2,0.4,0.2,0.6c7.6,4.4,15.5,8.5,23.6,12.1c0,0,0,0,0,0c0.3-0.1,0.4,0.1,0.5,0.2c42.4,18.8,90.7,25.6,139.9,17
			C422.7,472.6,508,359.5,497.7,236.2z M319.4,23.8c0,0-0.1,0-0.1-0.1c0,0,0-0.1,0-0.1c0,0,0.1,0,0.1,0.1
			C319.4,23.7,319.4,23.8,319.4,23.8z M495.3,228.3c0,0-0.1-0.1-0.1-0.1c0,0,0.1-0.1,0.1-0.1c0,0,0.1,0,0.1,0.1
			C495.4,228.3,495.4,228.3,495.3,228.3z M132.2,49.3c0.4-0.2,0.9-0.2,1.6-0.3c0,0.6,0,1-0.1,1.3c-0.2,0.6-1,0.9-1.5,0.5
			c-0.2-0.1-0.5-0.4-0.4-0.6C131.8,49.9,132,49.4,132.2,49.3z M279.6,495c-0.2,0-0.4-0.1-0.5-0.1c0-0.1,0.1-0.3,0.1-0.3
			c0.2,0,0.4,0,0.6,0.1C279.7,494.8,279.6,495,279.6,495z M492,302.1c0,0-0.1-0.1-0.1-0.1c0,0,0-0.1,0.1-0.1c0,0,0.1,0.1,0.1,0.1
			C492.1,302,492.1,302.1,492,302.1z M493.6,301.2c-0.1,0-0.3-0.2-0.4-0.3c0.1-0.1,0.2-0.3,0.3-0.3c0.2,0,0.3,0.1,0.6,0.1
			C493.9,301,493.8,301.2,493.6,301.2z M134,162.8c0.4-0.3,0.8-0.6,1.3-1c-0.4-0.5-0.8-0.9-1-1.4c-0.2-0.5,0.1-0.7,0.8-0.6
			c0.2,0.4,0.3,0.9,0.5,1.5c0.3,0,0.6,0,0.8,0l-9.7-17.3l-7.2,1.3l-4,24.5l6-1.1l0.7-5.5l8-1.4l1.3,2.6c0.2-0.4,0.6-0.7,1-0.8
			C133.1,163.3,133.6,163.1,134,162.8z M122.8,158.8l0.8-5.9l0.3-3.8l0.1,0l1.7,3.5l2.6,5.2L122.8,158.8z M242.1,25.6
			c-0.1,0-0.1,0-0.2,0c-8.5,0.5-17,1.6-25.6,3.1C139.1,42.3,77.6,92.8,46.9,159c0.2,0.4,0.5,0.8,0.1,1.3c-0.1,0-0.2,0.1-0.4,0.1
			c-0.1,0-0.2-0.1-0.3-0.1c-9.8,21.5-16.4,44.6-19.3,68.7c-0.1,0.5-0.1,1-0.2,1.5c-0.1,1-0.2,2.1-0.3,3.1c0,0,0,0,0,0v0
			c-2,20.5-1.3,41.5,2.4,62.8c3.9,22.3,11,43.3,20.5,62.6c0.2,0.4,0.4,0.9,0.7,1.3c44.7,88.7,143.6,141.6,246.4,123.5
			c8.9-1.6,17.6-3.7,26.1-6.2c0-0.3,0.1-0.7,0.4-1c0.6,0,1.1,0.2,1.4,0.5c66.3-20.3,118.1-68.9,144.3-129.7
			c-0.6,0.4-1.1,0.9-1.2,1.7c0,0.2-0.5,0.5-0.8,0.5c-0.5,0.1-0.8-0.2-0.9-0.7c-0.1-0.5-0.2-0.9-0.3-1.4c-0.1-0.7,0.1-1.3,0.7-1.8
			c0.5-0.4,1-0.7,1.6-0.4c0.7,0.3,1.1-0.3,1.7-0.5c0.1,0,0.1,0,0.2-0.1c8-19.4,13.5-39.9,16-61.2c0.1-0.5,0.1-1,0.2-1.5
			c2.4-21.4,1.8-43.6-2.1-65.9c-3.7-21.2-10.3-41.3-19.2-59.8v0c0,0,0,0,0,0c-0.4-0.9-0.9-1.9-1.4-2.8c-0.2-0.4-0.4-0.9-0.7-1.3
			c-9.3-18.5-21-35.4-34.6-50.5c-0.1,0-0.2,0.1-0.3,0.1c-0.2,0-0.4-0.1-0.5-0.1c0.1-0.2,0.2-0.3,0.3-0.5c-2.7-2.9-5.4-5.8-8.2-8.6
			c-0.1,0.2-0.2,0.3-0.4,0.4c-0.5,0.5-1.1,0.7-1.9,0.7c-0.3-1,0.1-1.7,0.7-2.1c0.1-0.1,0.2-0.2,0.4-0.2c-1.9-1.9-3.9-3.8-5.9-5.6
			c0,0-0.1,0.1-0.1,0.1c-0.3,0.3-0.7,0.4-1.1,0.1c-0.7-0.4-1.4-0.8-2.1-1.3c0.1-0.7,0.2-1.2,0.4-1.7
			C364.5,43.5,304.9,21.6,242.1,25.6z M407.7,86.7c0.1,0,0.2,0,0.3,0.1c-0.1,0.1-0.1,0.2-0.2,0.3c-0.1,0-0.2-0.1-0.3-0.1
			C407.5,86.9,407.6,86.7,407.7,86.7z M345.1,51.7c0.1,0,0.2,0.2,0.3,0.3c-0.1,0.1-0.1,0.2-0.2,0.3c-0.1-0.1-0.2-0.2-0.3-0.4
			C344.9,51.9,345,51.7,345.1,51.7z M340.4,45.4c0.2,0,0.3,0.1,0.5,0.1c-0.1,0.2-0.1,0.3-0.1,0.4c-0.2-0.1-0.3-0.1-0.5-0.2
			C340.3,45.7,340.4,45.5,340.4,45.4z M334.2,41.9c0.1,0,0.3,0.1,0.5,0.3c-0.2,0.2-0.3,0.4-0.4,0.4c-0.1,0-0.4-0.2-0.3-0.3
			C333.9,42.1,334,41.9,334.2,41.9z M324.5,44.6c0.6-0.7,1.4-0.7,2.2-0.9c0.7-0.1,1.4-0.3,1.9,0.3c0,0,0,0.1,0.1,0.4
			c-0.1,0.1-0.2,0.2-0.3,0.3c-1.1,0.5-2.3,0.8-3.5,0.8c-0.2,0-0.4-0.2-0.4-0.3C324.4,45,324.4,44.7,324.5,44.6z M311.9,38.7
			c0.4,0.1,0.8,0.3,1.2,0.5c-0.1,0.6-0.2,1.2-0.3,1.9c-0.5-0.1-1-0.1-1.2-0.4C310.9,40,311.2,39.3,311.9,38.7z M298.4,30.5l-0.1,0.1
			l0-0.1L298.4,30.5z M261.8,26.3c0.2-0.2,0.9,0.3,0.9,0.8c0,0.2-0.2,0.5-0.4,0.6c-0.4,0.2-0.8-0.1-0.9-0.7
			C261.6,26.9,261.6,26.5,261.8,26.3z M240.6,28.7c0,0,0.1-0.1,0.2-0.2c0.7,0.9,1.3,1.9,1.3,3.3c-1.4-0.2-1.6-0.4-1.6-1.3
			C240.5,29.9,240.6,29.3,240.6,28.7z M185,44.2c0.2-0.3,0.5-0.5,0.8-0.8c0.6,0.3,0.6,0.8,0.5,1.3c-0.1,0.3-0.7,0.5-1,0.4
			C185,44.9,184.8,44.5,185,44.2z M124.8,74.3c0.4-0.5,1-0.6,1.9-0.5c0.2,0.4,0.4,0.7,0.6,1c-0.1,0.2-0.1,0.4-0.1,0.5
			c-0.5,0.7-1.2,0.8-2,0.5c-0.3-0.1-0.7-0.2-0.7-0.6C124.4,74.9,124.6,74.5,124.8,74.3z M122.1,73.1c0.5,0,0.8,0.2,0.9,0.9
			c-0.2,0.1-0.4,0.4-0.6,0.5c-0.5,0.1-0.7-0.1-0.8-0.6C121.5,73.4,121.8,73.1,122.1,73.1z M121.8,76.4c0.4-0.1,0.9-0.1,1.3,0.1
			c0.3,0.1,0.3,0.6,0.6,1.1c-0.7,0.2-1.1,0.2-1.4,0.3c-0.4,0.1-0.7,0-0.8-0.3C121.2,77.1,121.3,76.5,121.8,76.4z M111.1,85.7
			c0.2-0.2,0.6-0.2,0.9-0.2c0.1,0,0.3,0.1,0.3,0.2c0,0.2,0,0.4-0.1,0.5c-0.2,0.2-0.5,0.3-0.7,0.4c-0.2-0.1-0.5-0.2-0.5-0.3
			C110.9,86.2,111,85.8,111.1,85.7z M108.2,88.4c0.1,0,0.2,0.2,0.2,0.3c0.1,0.5-0.1,0.8-0.6,0.9c-0.1,0-0.3,0-0.4-0.1
			c0-0.1-0.1-0.3,0-0.4C107.5,88.7,107.7,88.3,108.2,88.4z M50.1,155.1c0,0.1-0.1,0.2-0.1,0.2c0,0-0.1,0-0.1-0.1c0-0.1,0-0.2,0-0.3
			C49.9,155,50,155.1,50.1,155.1z M45.9,286.4c-0.1,0-0.2-0.2-0.3-0.4c0.2-0.1,0.4-0.3,0.6-0.4c0.1,0.1,0.1,0.2,0.3,0.4
			C46.3,286.2,46.1,286.3,45.9,286.4z M62.2,316.6c0,0-0.1-0.1-0.1-0.2c0-0.1,0.1-0.2,0.2-0.3c0.1,0.1,0.1,0.2,0.2,0.3
			C62.4,316.5,62.3,316.6,62.2,316.6z M65.2,372.5c-0.1,0-0.2,0-0.3-0.1c0-0.1,0.1-0.2,0.1-0.3c0.1,0.1,0.2,0.1,0.3,0.2
			C65.3,372.4,65.2,372.5,65.2,372.5z M75.1,393.4c0,0-0.3-0.1-0.3-0.2c0-0.2,0.1-0.3,0.2-0.5c0.1,0.1,0.2,0.1,0.4,0.2
			C75.3,393.1,75.2,393.3,75.1,393.4z M84.1,396.3c-1,0-1.9,0.6-3,0.2c-0.4-0.2-1,0.1-1.6,0.2c-0.5,0.1-0.5,0.1-1.7-0.3
			c0.1-0.9,0.7-1.3,1.3-1.1c0.8,0.2,1.4,0,2.1-0.2c0.6-0.2,1.2-0.2,1.8-0.3c0.5-0.1,0.9,0.2,1.2,0.6
			C84.7,395.7,84.5,396.3,84.1,396.3z M79,391.5c0-0.1,0.1-0.3,0.2-0.5c0.2,0.2,0.3,0.3,0.5,0.5c0,0-0.1,0.2-0.4,0.4
			C79.2,391.8,79,391.6,79,391.5z M99.2,422c-0.1-0.1-0.4-0.2-0.4-0.4c0-0.4,0.2-0.6,0.6-0.6c0.2,0,0.4,0.2,0.4,0.3
			C100,421.6,99.8,421.9,99.2,422z M113.3,431.5c0.1-0.4,0.1-0.9,0.3-1.4c0.2-0.7,0.9-1,1.6-0.6c0.8,0.4,1,0.8,1.1,2.2
			C115.2,432.6,114.3,432.3,113.3,431.5z M130.4,448.1c-1.4,0.2-1.8-0.8-2.4-1.8c0.2-0.3,0.4-0.6,0.6-0.6c0.4,0,0.8,0,1.1,0.2
			c0.4,0.3,0.8,0.7,1,1.2C130.8,447.3,130.5,447.7,130.4,448.1z M166.9,467.7c-0.1,0-0.1,0-0.2,0c0-0.1,0-0.2,0.1-0.3
			c0.1,0,0.1,0,0.1,0.1C166.9,467.6,166.9,467.7,166.9,467.7z M255.9,485.8c-0.1,0-0.4-0.2-0.4-0.3c0-0.1,0.2-0.4,0.3-0.4
			c0.2,0,0.3,0.2,0.6,0.3C256.2,485.6,256.1,485.8,255.9,485.8z M275.3,480.3c-0.1-0.1-0.2-0.2-0.1-0.3c0-0.1,0.1-0.2,0.2-0.2
			c0.1,0.1,0.2,0.2,0.2,0.3C275.5,480.2,275.4,480.2,275.3,480.3z M288.5,476.2c-0.2,0-0.3,0-0.5-0.1c0-0.1,0-0.3,0.1-0.3
			c0.2-0.1,0.3,0,0.5-0.1C288.5,476,288.5,476.2,288.5,476.2z M292.2,483.1c-0.1,0-0.4-0.2-0.4-0.3c0-0.2,0.2-0.4,0.3-0.4
			c0.1,0,0.3,0.2,0.5,0.3C292.5,482.8,292.4,483,292.2,483.1z M411.2,416.7c-0.1-0.1-0.2-0.3-0.3-0.4c0.1-0.1,0.2-0.2,0.3-0.2
			c0.1,0,0.1,0.2,0.2,0.3C411.4,416.4,411.3,416.5,411.2,416.7z M423.2,413.7c-0.2,0.8-0.4,1.6-1.2,2.1c-0.5,0.3-0.9,0.9-1.4,1.2
			c-0.4,0.3-1,0.5-1.6,0.8c0.1,0.6,0.2,1,0.2,1.4c0.1,0.9-0.4,1.5-1.3,1.3c-0.6-0.1-1.2-0.1-1.8,0.1c-1.3,0.3-2.2-0.2-3-1.3
			c0.4-0.7,1.2-0.9,1.9-1.1c0.9-0.3,1.5-0.7,1.7-1.6c0.1-0.6,0.5-1,1.1-1.1c0.9-0.2,1.4-0.7,2.1-1.2c0.6-0.5,1.3-1,2-1.5
			c0.2-0.1,0.7-0.1,0.9,0.1C423.1,412.9,423.2,413.4,423.2,413.7z M424.5,411.5c-0.1,0-0.4-0.2-0.4-0.4c0-0.7,0.5-1.5,1.2-1.6
			c0.2,0,0.5,0.2,0.7,0.3C426.2,410.9,425.6,411.6,424.5,411.5z M459.2,356.5c-0.1,0.1-0.3,0.2-0.7,0.3c-0.1-0.3-0.1-0.5-0.1-0.8
			c0-0.3,0.3-0.5,0.6-0.4c0.1,0,0.3,0.1,0.3,0.2C459.3,356,459.3,356.3,459.2,356.5z M471.6,326.4c0,0-0.1,0-0.2,0c0,0,0-0.1,0-0.1
			c0,0,0.1,0,0.1,0C471.6,326.3,471.6,326.4,471.6,326.4z M474.2,286.7c-0.1,0-0.2-0.1-0.3-0.2c0.1-0.1,0.2-0.3,0.4-0.4
			c0.1,0,0.2,0.1,0.4,0.2C474.4,286.5,474.3,286.6,474.2,286.7z M481.8,289.7c0,0.1-0.2,0.2-0.2,0.2c0-0.1-0.1-0.2-0.1-0.3
			c0-0.1,0.2-0.1,0.3-0.2C481.8,289.5,481.8,289.6,481.8,289.7z M483.4,269.7c0-0.1-0.1-0.2-0.1-0.2c0.1-0.1,0.2-0.1,0.3-0.2
			c0,0.1,0,0.1,0.1,0.2C483.6,269.6,483.5,269.6,483.4,269.7z M486.7,260.9c-0.2,0.4-0.3,0.8-0.5,1c-0.9,0.5-1.8,0.6-2.7,0.1
			c-0.2-0.1-0.3-0.3-0.3-0.5c0-0.2,0.1-0.6,0.3-0.7C484.5,260.3,485.5,260.4,486.7,260.9z M483,235.4c0.4-0.1,0.8,0,1.2,0
			c0.1,0,0.2,0.3,0.4,0.4c-0.1,0.2-0.2,0.5-0.3,0.5c-0.4,0.1-0.8,0.3-1.1,0.2c-0.2,0-0.5-0.4-0.6-0.7
			C482.5,235.8,482.8,235.4,483,235.4z M482.3,240.9c0.6-0.1,1.1,0.3,1,0.8c0,0.2-0.2,0.4-0.4,0.4c-0.5,0.1-0.9-0.3-0.9-0.8
			C482,241.1,482.2,241,482.3,240.9z M480.9,217.3c0.1-0.1,0.3,0.1,0.6,0.1c-0.2,0.2-0.3,0.4-0.4,0.5c-0.1,0-0.3-0.1-0.5-0.1
			C480.7,217.6,480.7,217.4,480.9,217.3z M478.2,217.5c0.3-0.2,0.9,0,1.3,0.6c0.2,0.2,0.3,0.5,0.4,0.7c0.5,1,1.1,2,1.6,3.1
			c0.1,0.2,0.3,0.5,0.3,0.7c0,0.3-0.2,0.6-0.4,0.8c-0.1,0.1-0.5,0.1-0.7,0c-0.4-0.2-0.7-0.4-0.9-0.8c-0.7-1.2-1.5-2.4-1.7-3.9
			C477.9,218.4,477.7,217.9,478.2,217.5z M477.5,249.3c0.1,0.1,0.1,0.2,0.2,0.3c-0.1,0-0.2,0.1-0.3,0.1c0-0.1,0-0.2,0-0.3
			C477.4,249.3,477.5,249.3,477.5,249.3z M472.5,191.2c0.4-0.3,0.8-0.1,1.1,0.2c0.2,0.3,0.4,0.5,0.6,0.8c0.4,0.9,0.8,1.7,1.1,2.6
			c0.1,0.2,0,0.6-0.1,0.7c-0.3,0.3-0.6,0.1-0.9-0.2c-0.6-0.8-1.3-1.6-1.8-2.4c-0.2-0.3-0.2-0.6-0.3-1.1
			C472.2,191.7,472.3,191.3,472.5,191.2z M471.4,241.6c-1,0.9-1.2,0.9-2.4,0.5C469.6,241.1,470.5,241.6,471.4,241.6z M468.9,265.6
			c0.3-0.1,0.9,0.2,0.9,0.7c-0.2,0.1-0.4,0.5-0.6,0.4c-0.3,0-0.5-0.3-0.7-0.6C468.5,266,468.8,265.6,468.9,265.6z M464.3,246.4
			c0.1,0.1,0.2,0.1,0.3,0.2c-0.1,0.1-0.1,0.2-0.2,0.3c-0.1-0.1-0.1-0.2-0.2-0.3C464.2,246.6,464.3,246.5,464.3,246.4z M464.1,266.3
			c0.1,0.1,0.2,0.1,0.3,0.2c0,0.1,0,0.1-0.1,0.1c-0.1-0.1-0.2-0.1-0.2-0.2C464,266.5,464.1,266.4,464.1,266.3z M473.9,296
			c-0.6,3.2-1.2,6.3-2,9.5c-6.4,27.8-18,53.9-34.5,77.4c-16.5,23.5-37,43.3-61,58.8c-22.4,14.5-47,24.7-73.2,30.4
			c0.4,0.6,0.4,1,0.1,1.9c-0.1,0-0.3,0-0.4-0.1c-0.2-0.1-0.4-0.3-0.6-0.5c0.1-0.4,0.2-0.8,0.4-1.2c-2.6,0.6-5.3,1.1-7.9,1.6
			c-29.4,5.2-58.9,4.5-87.7-2.2c-27.8-6.4-53.9-18-77.4-34.5c-23.5-16.5-43.3-37-58.8-61c-1.8-2.7-3.4-5.5-5.1-8.3l249.7-44
			c0.3-0.3,0.6-0.6,0.9-0.8c0.3-0.1,0.7,0,0.8,0.4c0,0,0,0.1,0,0.1L473.9,296z M85.8,216.1c0.3,0.1,0.5,0.4,0.8,0.7
			c-0.3,0.3-0.4,0.5-0.6,0.6c-0.4,0.1-0.8-0.2-0.8-0.6C85.2,216.4,85.6,216,85.8,216.1z M85.5,211.1c0.4-0.7,0.9-1.4,1.5-2
			c0.5-0.6,1.2-0.9,2.2-0.1c-0.1,0.7-0.2,1.5-0.4,2.2c-0.2,0.9-1.1,1.5-2,1.5c-0.6,0-1-0.4-1.3-0.9
			C85.4,211.7,85.4,211.3,85.5,211.1z M86.8,232.4c0.1,0.7,0.1,1.2,0.2,1.8c-1.1,0.8-2.1,1.7-3.6,0.7c0-1,0.6-1.5,1.3-1.8
			C85.3,232.8,86,232.7,86.8,232.4z M97,267.8c9.8,3.9,15,12.5,14.7,21.7c-0.3,7.9-5.7,17-20,21.7c-9.8-3.9-15-12.5-14.7-21.7
			C77.3,281.6,82.6,272.5,97,267.8z M103.2,266.9c0.1-0.2,0.3-0.4,0.5-0.5c0.2,0.2,0.3,0.4,0.5,0.6c-0.2,0.2-0.2,0.4-0.4,0.5
			C103.5,267.5,103.1,267.1,103.2,266.9z M111.4,355.2c-0.4,0.2-0.8,0.5-1.2,0.6c-0.5,0.2-0.9-0.1-1.1-0.6c-0.2-0.4,0.1-0.9,0.6-1.1
			c0.2-0.1,0.4-0.1,0.7-0.2c0.3,0.1,0.6,0.2,1,0.4C111.7,354.5,111.7,355.1,111.4,355.2z M106.4,341.8c-0.1,0.2-0.1,0.4-0.2,0.5
			c-0.2,0.2-0.5-0.1-0.5-0.4c0-0.2,0.2-0.3,0.3-0.5C106.1,341.6,106.3,341.7,106.4,341.8z M84,360.2c0,0.2-0.1,0.5-0.2,0.8
			c-0.3-0.2-0.5-0.3-0.5-0.5c-0.1-0.3,0-0.6,0.3-0.6C83.7,359.9,84,360.1,84,360.2z M116.3,354.3c-0.4,0.9-0.6,1-1.3,1.1
			c-0.3,0.1-0.5-0.1-1-0.8C115.1,354.3,115.1,354.3,116.3,354.3z M114.6,344.5c0.1-0.1,0.2-0.2,0.3-0.2c0.1,0,0.1,0.1,0.2,0.2
			c-0.1,0.1-0.2,0.1-0.3,0.2C114.7,344.6,114.6,344.6,114.6,344.5z M116.8,344.6c0,0,0.1-0.1,0.1-0.1c0.1,0,0.2,0.1,0.3,0.1
			c0,0-0.1,0.1-0.1,0.1C117,344.7,116.9,344.7,116.8,344.6z M145,259.7l-1.4,9.4l-2.2,0c-6.5-0.1-12.4,3.5-13.9,9.8
			c-1.6,6.6,1.3,12.5,4.5,15.9c3.1-1.9,6.3-4.7,8.6-7.8l5.4,6c-2.5,3-4.4,4.7-6.7,6.4c-2.3,1.7-5.1,3.3-9.5,5.1
			c-8.2-4.6-14.1-16.2-11.6-26.6C120.5,268.4,128.6,260,145,259.7z M120.2,233.7c-0.1-0.4,0.3-0.8,0.7-0.7c0.1,0,0.3,0.2,0.4,0.4
			c0.1,0.5-0.2,0.9-0.7,0.9C120.5,234.1,120.2,233.9,120.2,233.7z M135.4,247.3c0.3-0.3,0.6-0.7,0.8-1c0.2-0.3,0.5-0.5,0.9-0.2
			c0.2,0.2,0.6,0.5,0.5,0.8c0,0.5-0.2,1-0.3,1.5C136,248.5,136,248.5,135.4,247.3z M143.8,274.2c0,0.5,0,1-0.5,1.2
			c-0.5,0.3-1.2,0.2-1.7-0.3c-0.5-0.5-0.8-1.1-0.7-2c0.7-0.3,1.3-0.5,2-0.8C143.6,272.8,143.8,273.4,143.8,274.2z M147.7,344.7
			c0.1,0.1,0.1,0.2,0.1,0.4c-0.3,0.6-0.9,0.6-1.4,0.5c-1.1-0.2-2-0.8-2.6-1.8c-0.1-0.2,0.1-0.6,0.2-1.1
			C145.1,344,146.7,343.7,147.7,344.7z M146.7,271.4c0,0,0-0.1,0.1-0.1c0.1,0,0.2,0.1,0.2,0.1c0,0,0,0.1-0.1,0.1
			C146.9,271.4,146.8,271.4,146.7,271.4z M144,354c-0.2,0.1-0.3,0.2-0.3,0.2c-0.1,0-0.2-0.1-0.3-0.2c0-0.1,0.1-0.2,0.1-0.3
			C143.6,353.8,143.8,353.8,144,354z M140.3,348.6c-0.2,0.1-0.4,0.3-0.6,0.4c-0.3,0.1-0.6,0-0.5-0.4c0-0.2,0.3-0.3,0.6-0.6
			C140,348.3,140.1,348.5,140.3,348.6z M136,334.1c0,0,0,0.1,0,0.1c-0.1,0-0.1,0-0.2,0c0,0,0-0.1,0-0.1
			C135.9,334.1,135.9,334.1,136,334.1z M123.3,348c0,0.1-0.1,0.2-0.2,0.3c-0.1,0-0.2-0.1-0.3-0.1c0.1-0.1,0.1-0.2,0.2-0.3
			C123.2,347.9,123.3,347.9,123.3,348z M122,334.8c0.1,0.1,0.1,0.2,0.2,0.2c-0.1,0.1-0.3,0.2-0.4,0.3c0-0.1-0.1-0.2-0.1-0.3
			C121.8,334.9,121.9,334.9,122,334.8z M121.3,312.1c-0.3-0.3-0.6-0.4-0.7-0.6c-0.6-1.1-0.5-2.2,0-3.3c0.1-0.2,0.4-0.3,0.6-0.4
			c0.1,0,0.4,0.2,0.5,0.3C122.3,309.5,122,310.7,121.3,312.1z M178,255.2l-0.8,7.9l-11.8,2.1l-1.3,14.6c-0.4,4.2,0.4,7.3,2.5,9.3
			c2.3-1.5,4.6-3.6,7-7l5.6,5.5c-1.6,2.4-4.9,5.3-6.9,6.8c-2,1.7-4.6,3.4-8.7,5c-3.5-2.4-5.9-5.3-7.1-8.3c-1.4-3.5-1.6-6.7-1.3-9.8
			l1.5-14.6l-7.1,1.2l0.9-8l7-1.2l1.6-12.9l8.4-1.5l-1.4,12.8L178,255.2z M174.8,278.1c0,0.2-0.1,0.5-0.1,0.8
			c-0.2-0.2-0.4-0.2-0.4-0.3c0-0.2,0.1-0.4,0.2-0.7C174.6,278,174.8,278.1,174.8,278.1z M173.9,304.3c-0.1,0.2-0.2,0.5-0.3,0.6
			c0,0-0.3-0.1-0.6-0.3c0.2-0.3,0.3-0.5,0.5-0.6C173.5,304.1,173.9,304.3,173.9,304.3z M154.7,329.7c0,0-0.1,0.1-0.1,0.1
			c-0.1-0.1-0.2-0.1-0.2-0.2c0,0,0.1-0.1,0.1-0.1C154.5,329.6,154.6,329.7,154.7,329.7z M149.9,269.9c0,0,0,0.1,0.1,0.2
			c-0.1,0-0.2,0-0.3,0c0,0,0-0.1-0.1-0.1C149.7,269.9,149.8,269.9,149.9,269.9z M149.8,336.3c0.8,0.3,1.5,0.6,2.2,0.9
			c0.1,0.1,0.3,0.3,0.3,0.5c0,0.1-0.2,0.3-0.4,0.4c-0.7,0.3-1.3,0.2-2-0.1C149.4,337.6,149.3,337.2,149.8,336.3z M150.8,343
			c0.1,0,0.4,0.1,0.5,0.3c0.1,0.2,0.1,0.6,0,0.7c-0.3,0.3-0.6,0.5-1,0.6c-0.5,0.1-1,0-1.3-0.5C149.3,343.2,150,343.1,150.8,343z
			 M200.7,206.8c-0.3,0.5-1.3,0.8-1.8,0.6c-0.2-0.1-0.4-0.4-0.4-0.6c0-0.5,0.2-0.9,0.2-1.3c0.6-0.4,1.1-0.3,1.6-0.1
			C200.8,205.7,201,206.4,200.7,206.8z M202.1,223c0.2,0,0.4,0.1,0.5,0.2c0.5,0.7,0.8,1.6,0.5,2.5c-0.1,0.3-0.4,0.6-0.7,0.7
			c-0.7,0.1-1.3,0.1-2.1,0.1c-0.1-0.3-0.1-0.6-0.3-0.8c-0.4-0.6-0.5-1.1-0.1-1.7C200.5,223.4,201.2,223,202.1,223z M202.6,249.2
			c1.2,0.5,2.4,1.1,3.5,1.7c0.3-0.4,0.6-0.8,1.1-1c0.5-0.3,0.9-0.2,1.3,0.2c0.5,0.5,0.7,1.2,0.7,1.9c0,0.3-0.1,0.6-0.2,0.8
			c5.7,4.5,8.6,11.1,8.3,18.1c-0.3,7.9-5.7,17-20,21.7c-9.8-3.9-15-12.5-14.7-21.7C182.9,263,188.2,253.8,202.6,249.2z M221.5,323.5
			c1-0.2,1.1-0.2,1.8-1c0.6,0.9,1.3,1.7,1.9,2.5c0.6,0,1.2,0.1,2,0.1c-0.2,0.3-0.3,0.6-0.5,0.6c-0.4,0-0.8,0-1.2,0
			c-0.6,0-0.9,0.3-0.9,0.8c0,0.2,0.1,0.4,0.1,0.6c0.1,1.2,0,2.3-1.3,3c-0.1,0.1-0.2,0.2-0.3,0.4c0,0.5,0.1,1,0.1,1.6
			c0,0.6-0.3,1-0.9,1.2c-0.3,0.1-0.7,0.2-1,0.2c-0.7,0.1-1.2-0.1-1.5-0.7c-0.5-0.9-0.8-1.9-0.9-2.9c-0.1-0.8,0.3-1.4,1.1-1.7
			c0.4-0.1,0.8-0.2,1.1-0.3c-0.3-0.8-0.5-1.1-1.1-0.9c-0.9,0.2-1.7,0.4-2.5,0.6c-0.5-0.3-0.6-0.7-0.3-1.1
			C218.2,324.7,219.7,323.8,221.5,323.5z M218.7,304.9c0.1-0.2,0.2-0.3,0.3-0.5c0,0,0.2,0.1,0.5,0.2c-0.2,0.2-0.4,0.3-0.5,0.5
			C219,305.1,218.7,304.9,218.7,304.9z M223.3,276.4c-0.1,0.7-0.2,1.3-0.2,2C222.3,277.2,222.4,277,223.3,276.4z M228.8,231.9
			l-1-5.9l3.7-0.6c-0.6-0.4-1.2-0.9-1.6-1.5c-0.2-0.2-0.1-0.7-0.1-1c0-0.2,0.1-0.4,0.2-0.6c0.4,0.1,0.8,0.2,0.9,0.3
			c0.3,0.9,0.9,1.2,1.9,1.3c0.5,0,0.8,0.5,0.7,0.9c0,0.1-0.1,0.2-0.1,0.3l4.8-0.8l-2.7,29.1l1.4-1.4c-0.2-0.2-0.4-0.4-0.6-0.7
			c-0.2-0.3-0.4-0.7-0.4-1.1c0-0.3,0.3-0.6,0.5-0.8c0.3-0.2,0.7,0.1,0.7,0.4c0.1,0.6,0.5,0.8,1,0.9l9.6-9.5
			c9.7,3.5,14.1,15.7,11.4,25.3c-2.9,10.5-14.7,17.3-25.6,19.7c-3.1-2-5.3-5.5-6.3-8.9c-1-3.3-1.8-7.2-1.3-12.3L228.8,231.9z
			 M227.5,229.4c0,0,0.1-0.1,0.1-0.1c0.1,0.1,0.3,0.2,0.4,0.3c-0.1,0.1-0.2,0.2-0.3,0.3C227.7,229.7,227.6,229.6,227.5,229.4z
			 M256.4,299.5c-0.1,0.1-0.2,0.1-0.4,0.2c-0.1-0.1-0.2-0.3-0.2-0.4c0,0,0.2-0.2,0.3-0.2C256.2,299.2,256.3,299.4,256.4,299.5z
			 M255.4,319.6c-0.9-0.2-1.5-0.8-1.5-1.6c0-0.8,0.4-1.2,1.5-1.3C255.4,317.7,255.4,318.6,255.4,319.6z M247.7,333.7
			c0.6-0.1,1.1,0.3,1.2,0.8c0.1,0.4-0.1,0.7-0.5,0.8c-0.5,0.1-1.1-0.3-1.1-0.9C247.3,334.1,247.6,333.8,247.7,333.7z M247,314.6
			c-0.2-0.3-0.4-0.7-0.6-1c0-0.3,0-0.5,0.1-0.7c0.1-0.3,0.6-0.6,0.8-0.4c0.5,0.4,1,0.8,0.9,1.5c0,0.3-0.2,0.7-0.4,0.9
			C247.6,315.2,247.2,314.9,247,314.6z M245.7,330.8c0,0.1-0.2,0.4-0.3,0.4c-0.7,0.3-1.3,0.1-2-0.4c0.7-0.8,1.4-0.8,2-0.5
			C245.5,330.4,245.7,330.6,245.7,330.8z M239.2,331.6c-0.1,0.1-0.1,0.2-0.2,0.3c0,0-0.1,0-0.2-0.1c0.1-0.1,0.1-0.2,0.2-0.3
			C239.1,331.6,239.2,331.6,239.2,331.6z M238.7,336.3c0,0.1-0.1,0.3-0.2,0.4c-0.1-0.1-0.3-0.2-0.4-0.3c0,0,0.1-0.2,0.2-0.4
			C238.4,336.1,238.6,336.1,238.7,336.3z M232.2,336.4c-0.8,1-1.7,1.3-2.9,1.1c-1.2-0.3-2.4-0.6-3.4-1.3c-1.4-0.9-1.6-1.8-0.6-3.2
			c0.2-0.3,0.4-0.5,0.7-0.8c-0.1-0.3-0.3-0.6-0.4-0.9c0-0.1,0.2-0.3,0.4-0.4c0.7,0.7,1.6,0.9,2.5,1.2c0.3,0.1,0.5,0.5,0.6,0.7
			c0.2,0.4,0.2,0.8,0.2,1.2c0.7,0.4,1.4,0.5,2.2,0.4c0.1-0.7,0.1-1.4,0.4-2c0.3-0.6,1.1-0.3,1.7-0.6c0.5-0.3,0.9-0.6,1.3-1
			c0.5-0.4,0.9-0.5,1.5-0.1c0.4,0.3,1.1,0.3,1.2,1c0.1,0.8-0.5,1.1-1.1,1.3c-1.2,0.5-2.3,1.2-3.6,1.2c-0.2,0-0.4,0.1-0.6,0.2
			C232.2,335.3,232.2,335.9,232.2,336.4z M230,329.6c0.5-0.1,0.9,0.2,1.2,0.6c0.2,0.4,0,0.8-0.2,1.1c-0.3,0.4-0.6,0.5-1.1,0.3
			c-0.5-0.2-1.1-0.5-1.7-0.8C228.7,329.9,229.3,329.7,230,329.6z M229.2,307.3c0.1-0.1,0.2-0.2,0.3-0.2c0.5,0,0.9,0.3,1,0.8
			c0,0.1-0.3,0.4-0.3,0.4c-0.4-0.2-0.7-0.4-1-0.6C229.1,307.6,229.1,307.4,229.2,307.3z M227.9,322.3c-0.1,0-0.4-0.2-0.5-0.4
			c-0.2-0.3,0.1-0.6,0.5-0.6c0.2,0,0.4,0.2,0.8,0.4C228.3,321.9,228.1,322.2,227.9,322.3z M237,296.1c0-0.1,0.1-0.2,0.1-0.3
			c0.1,0.1,0.1,0.2,0.2,0.3c0,0,0,0.1,0,0.2C237.2,296.2,237.1,296.2,237,296.1z M216.8,332.6c0,0.1-0.3,0.3-0.5,0.3
			c-1-0.2-1.9-0.4-2.9-0.7c-0.1,0-0.3-0.3-0.3-0.5c0-0.1,0.2-0.3,0.3-0.5c1.1,0,2.2,0.2,3.1,0.7C216.7,332,216.8,332.4,216.8,332.6z
			 M209,329.9c0,0,0,0.1-0.1,0.1c-0.1,0-0.2-0.1-0.3-0.1c0-0.1,0-0.1,0.1-0.2C208.9,329.8,209,329.9,209,329.9z M189.7,327.8
			c0.9-1.3,1.7-2.2,3.3-2c0.4,0.5,0.9,1,1.4,1.6c0.4,0.5,0.1,1.1-0.6,1.2c-0.5,0.1-1.1,0.1-1.8,0.2
			C191.6,327.8,190.8,327.7,189.7,327.8z M190.9,328.6c0,0,0,0.1,0,0.1c0,0-0.1,0-0.1,0c0,0,0-0.1,0-0.1
			C190.8,328.6,190.9,328.6,190.9,328.6z M182.7,329.2c0.2,0.3,0.4,0.6,0.5,0.9c0.1,0.4,0.1,0.9-0.2,1.1c-1.1,0.7-2.2,1.4-3.6,0.4
			c0.1-0.9,0.3-1.7,0.4-2.7c0.2-0.2,0.5-0.5,0.8-0.8c0.2-0.3,0.4-0.7,0.6-1c0.6-0.1,1.1,0,1,0.6
			C182.1,328.3,182.4,328.7,182.7,329.2z M262.3,322.5c0,0.2-0.1,0.5-0.1,0.7c-0.2-0.1-0.4-0.1-0.5-0.2c-0.2-0.3,0-0.8,0.3-0.8
			C262.2,322.3,262.3,322.4,262.3,322.5z M262.2,193.6c0.1-0.2,0.2-0.3,0.4-0.4c0.3-0.3,0.6-0.5,1.3-1.1c-0.5,1-0.7,1.5-1,2
			c-0.1,0.1-0.4,0.1-0.5,0C262.2,194.1,262.2,193.8,262.2,193.6z M264.8,249c0-0.1,0.1-0.1,0.1-0.2c0.1,0.1,0.2,0.1,0.3,0.2
			c-0.1,0.1-0.2,0.1-0.3,0.2C264.8,249.1,264.8,249,264.8,249z M266.8,251.7c2.3-9.3,10.7-17.9,26.3-18.1c4.6,8.7,2.9,16.2-1.1,20.8
			c-4,4.6-9.6,6.9-15.9,8c0.9,2.6,3.2,5.7,5.2,7.1c3.4-1.9,5.5-3.6,8.6-7.6l5.5,5.5c-1.9,2.5-4.7,4.8-7.3,6.5
			c-2.7,1.8-5.5,3.1-9.2,4.2C270.1,273.2,264,263,266.8,251.7z M266.5,209.3c0.1-0.1,0.2-0.3,0.3-0.4c0.1,0.1,0.2,0.1,0.3,0.3
			c-0.2,0.1-0.3,0.2-0.4,0.2C266.6,209.4,266.5,209.3,266.5,209.3z M273.7,235.9c0,0.2-0.2,0.5-0.4,0.7c-0.1,0.1-0.2,0.2-0.3,0.2
			c-0.3,0-0.7,0-1,0c0.2-0.5,0.4-1,0.6-1.6C273.3,235.1,273.8,235.2,273.7,235.9z M273.7,195.5c0.1,0.1,0.2,0.1,0.3,0.2
			c0,0.1-0.1,0.2-0.1,0.2c0,0-0.1-0.1-0.1-0.1C273.7,195.7,273.7,195.6,273.7,195.5z M279.5,223.6l0.2,0l-0.1,0.1L279.5,223.6z
			 M283.4,195.6c0.2-0.1,0.3-0.2,0.5-0.3c0.1,0,0.2,0.1,0.4,0.3c-0.3,0.1-0.5,0.2-0.8,0.2C283.5,195.8,283.4,195.6,283.4,195.6z
			 M288.3,192.9c0.1,0,0.1-0.1,0.2-0.1c0,0,0.1,0.1,0.1,0.1c0,0.1-0.1,0.1-0.1,0.2C288.4,193,288.4,193,288.3,192.9z M289.9,205.9
			c0,0,0.2,0,0.2,0c0.1,0.2,0.2,0.3,0.2,0.5c0,0.1,0,0.1-0.1,0.4c-0.2-0.2-0.4-0.3-0.4-0.4C289.8,206.2,289.9,206.1,289.9,205.9z
			 M292.1,187.8c0.7,0.3,1.2,0.5,1.8,0.7c-0.5,0.8-0.5,1.8-1.9,1.6c0-0.3,0.1-0.6,0.1-0.9C292.1,188.8,292.1,188.5,292.1,187.8z
			 M294.1,227.2c0.1,0,0.2,0.2,0.2,0.2c-0.1,0.1-0.2,0.2-0.3,0.2c-0.1,0-0.2-0.2-0.2-0.2C293.9,227.3,294,227.2,294.1,227.2z
			 M295.9,233.7c-0.1-0.2-0.2-0.3-0.2-0.5c0-0.1,0.2-0.1,0.3-0.2c0.1,0.2,0.2,0.3,0.2,0.5C296.3,233.5,296.1,233.6,295.9,233.7z
			 M296.4,313.4c0.1,0.1,0.2,0.2,0.2,0.2c0,0-0.1,0.2-0.1,0.2c-0.1,0-0.2-0.1-0.3-0.1C296.3,313.5,296.4,313.4,296.4,313.4z
			 M293.6,301.6c1.3-0.1,1.3-0.1,1.3,0.6C294.4,302.3,294,302,293.6,301.6z M293.8,308.3c-0.3,0.2-0.4,0.4-0.6,0.4
			c-0.2,0-0.4-0.1-0.5-0.2c0.1-0.2,0.2-0.5,0.3-0.5C293.2,308,293.4,308.1,293.8,308.3z M290,308.8c-1.2,0.6-2,0.7-2.8,0.5
			C288,308.8,288.7,308.6,290,308.8z M278,324.4c0,0.2-0.2,0.3-0.2,0.5c-0.4,0.1-0.9-0.2-0.9-0.6c0-0.1,0.2-0.4,0.3-0.4
			C277.5,323.7,278,324,278,324.4z M271.4,312.9c-0.1,0.1-0.1,0.2-0.2,0.3c-0.1-0.1-0.2-0.2-0.2-0.3c0-0.1,0.1-0.2,0.2-0.3
			C271.3,312.8,271.3,312.8,271.4,312.9z M267.9,298.3c0,0.1,0,0.2-0.1,0.4c-0.1-0.2-0.2-0.3-0.3-0.5c0-0.1,0.1-0.1,0.2-0.2
			C267.8,298.1,267.9,298.2,267.9,298.3z M297.4,277.1c0.9-0.7,2-0.5,2.5,0.6c0.3,0.8,0.4,2.1,0.2,3.7c-1.2,0-0.8-1.1-1.4-1.5
			c-0.1,0-0.4-0.1-0.7-0.1c-0.7,0-0.9-0.5-1.1-1.1C296.8,278.1,296.8,277.5,297.4,277.1z M296.9,267.6c0.1-0.2,0.2-0.4,0.4-0.6
			c0,0,0.3,0.1,0.4,0.2c0.1,0.4,0,0.6-0.3,0.7C297.2,267.8,297,267.7,296.9,267.6z M300.3,234.3c-0.2-0.3-0.3-0.6-0.3-0.9
			c0-0.1,0.2-0.4,0.4-0.4c0.1,0,0.4,0.1,0.5,0.3c0.1,0.2,0.1,0.5,0.1,0.8c0,0.1-0.2,0.2-0.3,0.3
			C300.6,234.4,300.4,234.4,300.3,234.3z M300.4,254.8c-0.1,0.1-0.1,0.2-0.2,0.3c-0.1,0-0.3-0.1-0.3-0.2c0-0.1,0.1-0.2,0.2-0.3
			C300.2,254.7,300.3,254.8,300.4,254.8z M299.8,199.7c-0.4,0.4-0.9,0.4-1.2,0c-0.1-0.1-0.2-0.4-0.1-0.5c0.2-0.2,0.4-0.3,0.6-0.3
			c0.3,0,0.6,0.2,0.8,0.3C299.9,199.5,299.9,199.7,299.8,199.7z M299.7,270.7l-0.1,0.1l0-0.1L299.7,270.7z M307.2,230.3
			c2.7,0.8,4.5,2.7,5.4,3.8c1.7,2.3,2.6,4.8,2.8,6c1.9-4.2,2.7-5.7,4.5-7.7c2.5-2.9,5.4-4.9,10.9-5.4l0,0.6c0.1,0.1,0.3,0.2,0.4,0.3
			c-0.1,0.2-0.1,0.4-0.1,0.4c-0.1,0-0.2,0-0.3,0l-0.7,8.8c-4.2,0.7-6.9,2.9-9.3,6.4c-2.1,3-3,5.3-4.3,9.9l-1.1,17.1l-8.9,1.6
			l1.5-20.2c0.2-3.5,0.1-7-0.7-9c-0.8-2-2-4-5.8-5.9L307.2,230.3z M301.9,175.5l0.1-0.1l0.1,0.2L301.9,175.5z M305.2,220.3
			c0-0.6,0.5-0.8,1.1-1.2c0.1,0.4,0.3,0.7,0.2,0.9C306.2,220.5,305.7,220.6,305.2,220.3z M310.3,178.4c0-0.2,0.1-0.3,0.2-0.9
			c0,0.6,0,0.7,0,0.9c0,0.1-0.1,0.1-0.1,0.2C310.4,178.5,310.3,178.4,310.3,178.4z M316.3,197.7c-0.4-0.5-0.4-1.1,0.1-1.4
			c0.8-0.6,1.4-1.4,1.8-2.5c0.6,1.3,0.9,2.4,0.8,3.4c-0.1,0.9-0.1,1.7-0.2,2.6c-0.1,0.7-0.5,0.9-1.7,0.9c0.1-0.8,0.1-1.4,0.2-2
			C317,198.4,316.6,198.1,316.3,197.7z M317.3,168.6c-0.1,0-0.4-0.1-0.5-0.3c-0.2-0.4,0-0.6,0.3-0.9c0.1-0.1,0.2-0.1,0.5-0.2
			c0.2,0.2,0.3,0.3,0.3,0.5C317.9,168.2,317.8,168.5,317.3,168.6z M317,170.9c0.1,0.4,0.2,0.8,0.3,1.3c0.3,0.8,0.3,1.7-0.1,2.6
			c-0.1,0.1-0.5,0.1-0.7,0.1c0,0-0.1-0.1-0.1-0.1c-0.4-1.2-0.7-2.5-0.4-3.8c0.1-0.3,0.2-0.7,0.6-0.6
			C316.7,170.4,317,170.7,317,170.9z M315.9,204.9c0.1,0,0.2,0,0.2,0c0,0,0.1,0.1,0.1,0.1c-0.1,0.1-0.3,0.2-0.5,0.3
			c0,0-0.1-0.1-0.1-0.1C315.6,205.2,315.8,205,315.9,204.9z M315.7,227.8c-0.2,0.7-0.7,0.8-1.1,0.5c-0.3-0.2-0.5-0.6-0.6-1
			c-0.1-0.1,0-0.4,0.1-0.5c0.1-0.1,0.4-0.1,0.5,0C315,227.1,315.4,227.5,315.7,227.8z M315.7,232.8c0,0-0.1,0.1-0.1,0.1
			c-0.1,0-0.2-0.1-0.3-0.1c0.1-0.1,0.1-0.2,0.2-0.2C315.5,232.7,315.6,232.8,315.7,232.8z M319.8,178.9c0.3-0.6,0.7-1,1.4-1
			c0.2,0,0.6,0.1,0.7,0.2c0.1,0.2,0.1,0.5,0,0.7c-0.2,0.7-0.9,0.9-1.5,1.3C319.7,179.8,319.5,179.4,319.8,178.9z M327.6,205.8
			c0,0-0.1,0.1-0.1,0.1c0,0,0,0.1-0.1,0.1C327.4,205.9,327.5,205.8,327.6,205.8C327.6,205.7,327.6,205.7,327.6,205.8
			c0-0.2,0.1-0.4,0.1-0.5c0-0.1,0.2-0.1,0.3-0.1c0,0.1,0.1,0.3,0,0.3C327.9,205.5,327.7,205.6,327.6,205.8
			C327.6,205.7,327.6,205.7,327.6,205.8L327.6,205.8C327.5,205.7,327.6,205.8,327.6,205.8z M327,181.9c-0.2-0.2-0.5-0.4-0.7-0.7
			c-0.3-0.4-0.3-0.9-0.7-1.2c-1-1-0.8-2-0.1-3.2c0.7-0.2,1.2-0.4,1.9-0.6c1.2,0.9,1.2,2.2,1.1,3.5
			C328.4,180.5,328.2,181.6,327,181.9z M325.2,200c0.5,0,0.8-0.1,1.1,0c0.5,0,0.9,0.8,0.6,1.2c-0.3,0.4-0.7,0.7-1.2,0.6
			c-0.5-0.1-1.1-0.3-1.2-0.9c0-0.2,0-0.4,0.2-0.5C324.8,200.1,325.1,200.1,325.2,200z M324.4,228.5c-0.1,0.3-0.7,0.2-0.9,0
			c-0.4-0.5-0.4-1.1-0.4-1.7c0-0.6,0-1.2,0.1-1.9c0.5-0.3,1-0.3,1.2,0.2C325,226.1,324.9,227.3,324.4,228.5z M323,185.4
			c-0.1,0.1-0.3,0.2-0.5,0.3c-0.1,0-0.2-0.1-0.5-0.1c0.1-0.3,0.1-0.6,0.3-0.9c0.2-0.3,0.6-0.3,0.8,0
			C323.3,185,323.2,185.2,323,185.4z M334.1,233.6c-0.1,0.2-0.2,0.3-0.3,0.6c-1.1-0.8-0.5-1.8-0.4-2.7c-0.5-0.2-0.9-0.4-1.2-0.6
			c0-0.5,0.2-0.7,0.6-0.6C334.3,230.8,334.8,232.1,334.1,233.6z M335.6,252.6c0.4-0.1,0.8-0.1,1.2,0c0.2,0,0.4,0.4,0.5,0.6
			c0,0.2-0.1,0.6-0.3,0.7c-0.7,0.4-1.5,0.7-2.3,0.4c-0.1,0-0.2-0.2-0.4-0.4C334.5,253.2,335,252.8,335.6,252.6z M331.4,198.5
			c0,0-0.1-0.1-0.1-0.1c0-0.1,0.1-0.2,0.1-0.2c0,0.1,0.1,0.1,0.1,0.1C331.5,198.4,331.5,198.5,331.4,198.5z M331.7,275.8
			c0.2,0,0.3,0.2,0.5,0.3c-0.3,0.1-0.5,0.2-0.6,0.1c-0.1,0-0.2-0.2-0.3-0.4C331.5,275.8,331.6,275.7,331.7,275.8z M332.4,296.6
			c0.4,0.6,0.3,2-0.2,2.5c-0.2,0.2-0.6,0.2-1.1,0.3c-0.3-0.8-0.5-1.4-0.6-1.9c-0.2-0.6,0.1-1.1,0.6-1.4
			C331.4,295.9,332.1,296.1,332.4,296.6z M331.1,313.3c0.2,0.1,0.6,0.2,0.6,0.4c0.1,0.7,0.5,1.1,1.1,1.4c0.3,0.1,0.4,0.5,0.5,0.8
			c-0.5,0.5-1,0-1.5,0c-0.2-0.6-1-1.1-0.9-1.9C330.8,313.7,331,313.5,331.1,313.3z M331.7,192.1c-0.3-0.8-0.6-1.5-0.9-2.2
			c-0.4-1.1-0.1-2,0.9-2.5c0.4-0.2,1,0,1,0.3c0.2,0.9,0.5,1.7,0.5,2.6C333.4,191.2,332.9,191.9,331.7,192.1z M329.6,297.9
			c-0.2,0.3-0.3,0.6-0.4,0.5c-0.2,0-0.5-0.1-0.7-0.2c-0.1-0.1,0-0.3,0.1-0.5C328.9,297.8,329.2,297.8,329.6,297.9z M327.2,270.2
			c0.2-0.7,0.7-0.6,1.2-0.5c0,0.1,0.1,0.3,0.1,0.4c0,0.3-0.1,0.5-0.3,0.8c-0.4-0.1-0.7-0.1-1-0.1
			C327.2,270.6,327.1,270.4,327.2,270.2z M327.2,301.3c0,0.1,0,0.1-0.1,0.2c0,0-0.1,0-0.2,0c0-0.1,0-0.1,0-0.2
			C327,301.3,327.1,301.3,327.2,301.3z M324.5,303.2c-0.3-0.1-0.7-0.2-1-0.3c-0.4-0.2-0.6-0.5-0.5-0.9c0.1-0.5,0.5-0.6,0.9-0.6
			c0.5,0.1,0.9,0.2,1.4,0.3c0.3,0.1,0.5,0.1,1,0.2C325.8,303,325.3,303.4,324.5,303.2z M324.7,316.9c-0.2,0.1-0.3,0.3-0.4,0.3
			c0,0-0.1-0.1-0.2-0.2c0.1-0.1,0.1-0.2,0.2-0.3C324.4,316.8,324.5,316.8,324.7,316.9z M321.6,268.4c0.1-0.7,0.1-1.4,0.1-2
			c0.9,0.4,1.2,0.7,1.1,1.4C322.7,268.3,322.3,268.5,321.6,268.4z M321.8,309.7c0,0,0,0.1,0,0.1c-0.1,0-0.1,0-0.2,0c0,0,0-0.1,0-0.1
			C321.7,309.6,321.8,309.7,321.8,309.7z M319.8,267.7c0.1,0.3,0.2,0.6,0.3,0.9c-1,1-1,1-2.5,0.8c-0.1-0.6-0.1-1.1-0.3-1.5
			c-0.4-0.8-0.3-1.4,0.4-2c0.9-0.8,1.6-1.8,3-1.4c0.1,0,0.2,0.2,0.3,0.3c0.1,0.5-0.4,0.7-0.7,0.9
			C319.5,266.2,319.4,266.9,319.8,267.7z M318.3,283.4c-0.6,0.3-1.2,0.1-1.6-0.5c-0.5-0.8-0.5-1.7,0.1-2.4c0.4-0.5,1-0.7,1.6-0.6
			c0.6,0.1,1.1,0.6,1.2,1.2c0.1,0.4,0.1,0.8,0.1,1.2C319.3,282.7,318.9,283.1,318.3,283.4z M318.6,320.1c-0.2,0.2-0.4,0.4-0.6,0.4
			c-0.5,0-1-0.1-1.5-0.2c0-0.1,0-0.1,0-0.2c0.3-0.1,0.6-0.1,0.9-0.2c0.3-0.1,0.6-0.3,0.9-0.5c0.1,0,0.3,0,0.3,0.1
			C318.6,319.7,318.6,320,318.6,320.1z M317.9,278.8c0,0,0-0.1,0.1-0.1c0,0,0.1,0,0.1,0c0,0.1,0,0.1,0,0.2
			C318.1,278.8,318,278.8,317.9,278.8z M320.5,256.5c-0.2-0.3-0.4-0.7-0.6-1c-0.2-0.3,0.1-0.8,0.4-1c0.4-0.2,1,0,1.2,0.4
			c0.3,0.6,0.1,1.2-0.2,1.7c0,0.1-0.2,0.1-0.4,0.2C320.8,256.7,320.6,256.6,320.5,256.5z M322.7,289.3c0.1,0,0.1,0,0.1,0
			c0,0,0,0.1,0.1,0.2c-0.1,0-0.2,0-0.2,0C322.7,289.4,322.7,289.3,322.7,289.3z M322.9,287.2c0-0.1,0.1-0.1,0.1-0.2
			c0.3-0.1,0.7,0.2,0.9,0.6c0,0.1,0,0.1,0,0.2c-0.1,0-0.1,0.1-0.2,0.1C323.3,287.9,322.8,287.5,322.9,287.2z M311.7,304.3
			c-0.1,0.1-0.2,0.2-0.3,0.1c-0.1,0-0.1-0.2-0.2-0.3c0.1-0.1,0.2-0.2,0.3-0.1C311.5,304.1,311.6,304.2,311.7,304.3z M305.7,291.1
			c0,0.1-0.2,0.3-0.4,0.3c-0.1,0-0.3-0.2-0.3-0.3c0-0.1,0.2-0.2,0.4-0.4C305.5,290.8,305.7,291,305.7,291.1z M304.5,307
			c-0.4,0.4-0.5,0.7-0.8,0.8c-0.2,0.1-0.6-0.2-0.6-0.3c-0.2-0.4,0.2-0.6,0.5-0.7C303.8,306.7,304.1,306.9,304.5,307z M341.2,301.4
			c0.3,0,0.7,0.7,0.6,1c-0.1,0.5-0.6,0.5-0.9,0.6c-0.4,0.1-2.1-0.9-2.3-1.4c0-0.1,0.1-0.3,0.2-0.4
			C339.6,301.2,340.4,301.3,341.2,301.4z M339.3,298.1c0.2-0.1,0.5-0.1,0.7,0.1c0.6,0.4,0.4,0.9-0.1,1.6c-0.3-0.4-0.6-0.7-0.7-1
			C339.1,298.6,339.2,298.2,339.3,298.1z M343.5,178c0,1-0.1,2-0.1,3c-0.6,0-1.3,0.1-1.9,0c-0.7,0-1.2-0.6-1-1.2
			c0.2-1,0.4-2,0.7-3.2C342.1,177.2,342.8,177.6,343.5,178z M343,172.7c0-0.1,0-0.2,0.1-0.3c0,0,0.1,0.1,0.1,0.1c0,0.1,0,0.1,0,0.2
			C343.1,172.7,343.1,172.7,343,172.7z M342.6,209.3c-0.1-0.1-0.1-0.3-0.2-0.4c0.1,0,0.1-0.1,0.2,0c0.1,0,0.3,0.1,0.3,0.2
			c0.1,0.2,0.1,0.4,0.3,0.8C342.9,209.6,342.7,209.5,342.6,209.3z M343,298.6c0,0.2-0.1,0.3-0.1,0.5c-0.2-0.1-0.4-0.2-0.5-0.3
			c0.1-0.1,0.2-0.3,0.3-0.3C342.8,298.4,343,298.5,343,298.6z M343,186.4c-0.1,0-0.4-0.3-0.5-0.5c-0.1-0.2-0.1-0.4-0.1-0.6
			c0-0.4,0.2-0.8,0.7-0.9c0.3-0.1,0.6,0.2,0.8,1c0,0.1,0.1,0.4-0.1,0.6C343.6,186.2,343.3,186.4,343,186.4z M340.5,253.7
			c0.3-0.3,0.6-0.5,1-0.7c0.3-0.2,0.7,0.2,0.7,0.5c-0.1,0.4-0.3,0.7-0.5,1.3c-0.6-0.3-0.9-0.4-1.2-0.6
			C340.4,253.9,340.4,253.7,340.5,253.7z M338.5,227.3c-0.1,0.1-0.3,0-0.4,0c-0.6-0.4-0.6-1-0.6-1.7c0.6,0.3,1,0.7,1.1,1.4
			C338.7,227.1,338.6,227.3,338.5,227.3z M348.5,236.2c0.2,0,0.4,0.2,0.8,0.3c-0.2,0.2-0.4,0.5-0.4,0.4c-0.2-0.1-0.4-0.2-0.6-0.3
			C348.3,236.5,348.4,236.2,348.5,236.2z M348.2,223.6c0,0,0.1,0,0.1,0c0,0.1,0.1,0.1,0.1,0.1c0,0-0.1,0.1-0.1,0.1
			C348.3,223.7,348.3,223.6,348.2,223.6z M348.4,193.8c-0.3,0.3-0.7,0.6-1.2,1.1c-0.2-0.5-0.4-0.7-0.3-0.8c0.3-0.4,0.6-0.8,1-1.2
			c0.1-0.1,0.4-0.1,0.5,0c0.1,0.1,0.1,0.3,0.2,0.5C348.5,193.5,348.5,193.7,348.4,193.8z M347.1,202.5l0.1-0.1l0,0.1L347.1,202.5z
			 M347.1,235.3c-0.1,0.1-0.2,0.2-0.3,0.2c-0.2-0.1-0.3-0.2-0.5-0.3c0,0,0.1-0.2,0.2-0.4C346.8,235,346.9,235.2,347.1,235.3z
			 M347.1,186.1c-0.5,0.2-0.9,0-1.2-0.5c-0.1-0.1-0.1-0.2-0.2-0.4c-0.2-0.6-0.1-1.1,0.5-1.3c0.6-0.2,1,0.1,1.3,0.7
			c0,0.1,0.1,0.3,0.1,0.4C347.7,185.5,347.5,185.9,347.1,186.1z M355.4,214.8c-0.2-0.1-0.2-0.4-0.2-0.7c0-0.4,0.3-0.8,0.8-0.7
			c0.3,0.1,0.5,0.3,0.7,0.4C356.7,214.6,355.9,215.1,355.4,214.8z M356.4,233.4c-0.1,0.3-0.3,0.6-0.5,1c-0.1,0-0.2,0-0.3-0.1
			c0-0.4-0.1-0.7,0-1.1c0-0.1,0.3-0.2,0.5-0.2C356.2,233,356.4,233.3,356.4,233.4z M355.6,256l7.6-1.3c4.5-4.3,6.9-7.5,9-10.5
			c3.1-4.6,5.6-9.1,6.7-13.9c-2.1-2.2-4.9-3.5-8.7-2.8c-2.9,0.5-5.2,2.2-7.5,4.4l-5.4-6.2c3.8-3.1,7.3-5.3,13.6-6.4
			c7.2-1.3,14,3,17.1,8.5c-0.8,6.2-2.3,9.1-4.2,12.9c-1.9,3.8-4.9,7.8-8.4,11.5l15.4-2.7l-0.9,8l-35.1,6.2L355.6,256z M359.5,240.4
			c0.5-0.1,0.9,0.3,0.9,0.8c0,0.4-0.2,0.6-0.6,0.7c-0.4,0.1-0.8-0.2-0.9-0.6C358.9,240.9,359.1,240.5,359.5,240.4z M364.4,233.4
			c0-0.1,0.2-0.4,0.3-0.4c0.2,0,0.4,0.1,0.8,0.2c-0.3,0.3-0.4,0.5-0.6,0.7C364.8,233.8,364.5,233.6,364.4,233.4z M366.2,237.4
			c0-0.5,0.3-0.8,0.8-0.8c0.4,0,0.8,0,1.2,0.1c0.5,0.1,0.7,0.5,0.7,1.1c0,0.5-0.4,0.7-1.2,0.8c-0.1,0-0.5,0-0.8-0.1
			C366.5,238.5,366.2,237.9,366.2,237.4z M359,186.7c0.8,0.5,1.1,1.8,0.4,2.5c-0.2,0.2-0.4,0.3-0.7,0.5c-0.4,0.2-0.9,0.1-1-0.3
			c-0.1-0.2-0.1-0.4-0.2-0.8c0-0.2,0-0.7,0.1-1.2C357.7,186.6,358.4,186.4,359,186.7z M357.9,171.7l0-0.1l0.1,0.1L357.9,171.7z
			 M359,206.2c0,0.1-0.1,0.2-0.2,0.3c-0.1-0.1-0.2-0.2-0.2-0.3c0-0.1,0.1-0.2,0.2-0.3C358.9,206,359,206.1,359,206.2z M361.3,209.2
			c0.9-0.2,1.5,0.2,1.6,0.8c0.2,1-0.2,1.6-1.1,1.8c-0.9,0.2-1.5-0.2-1.7-1.2C359.8,209.8,360.2,209.3,361.3,209.2z M363.5,174.8
			c0,0,0.1,0,0.1-0.1c0,0.1,0,0.1,0.1,0.2c0,0-0.1,0-0.1,0.1C363.5,174.9,363.5,174.9,363.5,174.8z M375.4,215.6
			c0.1-0.3,0.1-0.7,0.6-0.6c0.1,0,0.2,0.2,0.2,0.3c0.1,0.4-0.1,0.6-0.5,0.7C375.6,215.8,375.4,215.7,375.4,215.6z M376.9,204.4
			c0.3-0.4,0.5-0.8,0.8-0.9c0.4-0.2,0.6,0.2,0.7,1.3C377.9,204.6,377.5,204.5,376.9,204.4z M383,158.4c0.1-0.4,0.4-0.9,0.8-0.8
			c1,0.3,2.1,0.3,3,1.5c-1.2,0.8-2.3,0.5-3.3,0.3C383.2,159.4,382.9,158.8,383,158.4z M387.5,215.5c-0.1-0.3,0.2-0.6,0.8-0.7
			c0.4,0,0.8-0.2,1,0.3c0.2,0.5-0.3,1.1-0.8,1.2C388.1,216.3,387.6,215.9,387.5,215.5z M394.2,264.2c0.9,1.4,0.4,2.5-1.1,3
			c-0.5,0.2-1,0.3-1.6,0.5c-1.3-0.4-0.8-1.9-1.7-2.6c0.8-1.1,0.2-2.6,1.1-3.7c0.3,0.1,0.5,0,0.6,0.1
			C392.6,262.1,393.5,263.1,394.2,264.2z M392.8,255.1c0.1-0.3,0.3-0.6,0.6-1c0.3,0.3,0.5,0.5,0.6,0.7c0.1,0.4-0.2,0.8-0.7,0.8
			C393.1,255.4,392.7,255.1,392.8,255.1z M389.2,303.3c-0.2,0.2-0.6,0.2-1,0.3c-0.3,0-0.6-0.4-0.5-0.7c0.1-0.2,0.3-0.4,0.5-0.6
			c0.1-0.2,0.2-0.5,0.3-0.7c0-0.1,0-0.1,0-0.3c-0.8-0.5-1.5-0.1-2.3,0.1c-2.1-0.9-2.1-0.9-1.9-2.2c0.5,0.2,1.1,0.4,1.4,0.7
			c1.3,1.1,2.5,0.8,3.8,0c0.3-0.2,0.6-0.4,0.9-0.5c0.5-0.2,1.2,0,1.4,0.5c0.2,0.6,0.3,1.2,0.5,2C391.1,302.2,390,302.5,389.2,303.3z
			 M390,305.2c-0.3,0.3-0.5,0.5-0.7,0.6c-0.2,0.1-0.4,0-0.5-0.1c-0.2-0.1,0-0.4,0.4-0.5C389.4,305.2,389.6,305.2,390,305.2z
			 M377.4,297.2c1.3-0.5,2.3-1,3.4-1.4c0.8-0.3,1.2,0.1,1.4,1c0.1,0.3,0.1,0.5,0.2,0.8c0,0.2,0.1,0.4,0.1,0.6
			c-0.6,0.9-1.5,1.3-2.4,1.7c-0.2,0.1-0.5,0.1-0.8,0.1c-0.6,0-0.9-0.6-0.7-1.2C379.2,297.5,379.1,297.5,377.4,297.2z M381.7,307.7
			c0.3-0.2,0.6-0.4,1-0.6c0.2,0.6,0,1-0.4,1.2c-0.1,0.1-0.4,0.1-0.5,0C381.6,308.1,381.6,307.8,381.7,307.7z M371.3,297.2
			c-1-0.4-1.7-1.8-1.1-2.7c0.4-0.7,0.4-1.2,0.2-1.9c-0.1-0.3-0.1-0.7-0.1-1.1c-0.6-0.3-1.1-0.7-1.8-1.1c0.2-0.5,0.4-1,0.6-1.6
			c0.5,0.3,0.8,0.5,1.1,0.6c0.4,0.2,0.8,0.2,1.2,0.4c1.1,0.4,1.1,0.4,1.1,1.9c0.9,0.5,1.7,0.8,2.1,1.7c0.2,0.4,0.8,0.6,1.2,0.9
			c0.1,1.2-1,0.9-1.6,1.2c-0.2,0.6-0.5,1.3-0.8,2.1C372.6,297.5,372,297.4,371.3,297.2z M372,307.4c0,0.1-0.5-0.1-0.5-0.2
			c-0.1-0.3-0.1-0.6-0.2-1.2c0.5,0.4,0.9,0.5,1,0.8C372.3,306.9,372.1,307.2,372,307.4z M372.3,266.9c0-0.1,0.1-0.2,0.1-0.1
			c0.1,0,0.2,0.1,0.3,0.2c0,0.1-0.1,0.1-0.1,0.1C372.5,267,372.4,267,372.3,266.9z M364,267.5c-0.1,0.1-0.1,0.2-0.2,0.3
			c0,0-0.1,0-0.2,0c0.1-0.1,0.1-0.2,0.2-0.3C363.9,267.4,364,267.5,364,267.5z M362.7,275.4c-0.2,1-0.4,1.7-1,2.2
			c-0.2-0.1-0.5,0-0.6-0.2c-0.9-1.2-1.8-2.4-2-3.9c-0.1-1.3-0.5-2.5-0.3-3.9c0.3,0.2,0.6,0.2,0.6,0.4c0.3,0.7,0.7,1.5,0.9,2.3
			C360.6,273.7,361.2,274.8,362.7,275.4z M353.1,221.6c-0.2,0-0.5-0.2-0.7-0.4c-0.2-0.3,0-0.7,0.3-0.9c0.6-0.2,1.2-0.8,2-0.2
			C354.4,221,354.1,221.7,353.1,221.6z M353.5,229.5c-0.1,0.1-0.2,0.4-0.3,0.4c-0.1,0-0.3-0.1-0.5-0.2c0.1-0.1,0.1-0.3,0.3-0.5
			C353.2,229.4,353.4,229.5,353.5,229.5z M353.8,214.5c-0.2,0.2-0.5,0-0.6-0.3c-0.1-0.6,0.1-1.1,0.5-1.1c0.2,0,0.4,0.2,0.7,0.4
			C354.2,213.9,354,214.3,353.8,214.5z M353.8,170.9c-0.5,0.2-1,0.1-1.7-0.3c0.4-0.9,1.1-0.9,1.8-0.8c0.1,0,0.3,0.3,0.3,0.5
			C354.1,170.5,354,170.8,353.8,170.9z M352.3,292.1c0.1,0.4-0.2,0.6-0.5,0.7c-0.6,0.1-1.1-0.1-1.1-0.6c0-0.3,0.3-0.5,0.4-0.7
			C351.7,291.4,352.2,291.7,352.3,292.1z M350.3,189.3c0,0,0.2-0.2,0.4-0.5c0.2,0.3,0.4,0.4,0.4,0.7c0,0.1-0.3,0.4-0.3,0.3
			C350.6,189.7,350.4,189.5,350.3,189.3z M350.2,186.8c0.5-0.8,0.9-1.5,1.5-2.4c0,0.9,0.1,1.4,0.1,1.9
			C351.4,186.8,351,186.9,350.2,186.8z M350,207c-0.3-0.5-0.3-0.5,0-1.3C350.4,206.2,350.4,206.2,350,207z M401.8,215.8
			c1.1-6.3,8-11,16.3-13.3c6,1.8,10.6,5.1,11.9,9.8c0.2,0.2,0.4,0.6,0.3,0.7c0,0.1-0.1,0.2-0.1,0.2c0.1,0.4,0.1,0.7,0.1,1.1
			c0.1,0.3,0.3,0.6,0.5,1c-0.2,0-0.3-0.1-0.4-0.1c0,0.1,0,0.2,0,0.3c-0.1,4-2.2,7.3-7.2,10.6c6.1,2.6,8.9,7.4,8.2,13
			c-1,8.2-10.5,13.6-18.3,16c-6.9-2-15.1-7.9-14-16.8c0.6-4.9,4-7.8,9.1-10.7C403.1,225.1,401,220.7,401.8,215.8z M423.1,185.5
			c0-0.1,0.3-0.3,0.4-0.3c0.2,0,0.4,0.2,0.4,0.3c0.2,0.8,0.3,1.5,0.5,2.5C423.4,187.3,423,186.5,423.1,185.5z M427.4,189.8
			c0,0,0.1-0.1,0.1-0.1c0.1,0.1,0.1,0.2,0.2,0.2c0,0-0.1,0.1-0.1,0.1C427.5,189.9,427.4,189.8,427.4,189.8z M433.9,199.9
			c0.2,0.1,0.3,0.2,0.7,0.4c-0.4,0.3-0.5,0.5-0.8,0.6c-0.4,0.2-0.6,0-0.8-0.3c-0.1-0.3,0.1-0.6,0.5-0.7
			C433.6,199.9,433.8,199.9,433.9,199.9z M433.9,148.6c0.1-0.2,0.3-0.3,0.4-0.4c0.2-0.1,0.4-0.1,0.8-0.2c0.2,0.4,0.3,0.7,0.4,1.1
			c0.1,0.6-0.4,1.1-1,1c-0.3-0.1-0.7-0.3-0.8-0.5C433.6,149.3,433.7,148.9,433.9,148.6z M433.7,260.2c0.3,0.3,0.2,0.7-0.1,0.9
			c-0.2,0.2-0.5,0.4-1.1,0.7c-0.1-0.7-0.1-1-0.1-1.3c0-0.4,0.4-0.5,0.7-0.5C433.4,260,433.6,260,433.7,260.2z M433.3,217.4
			c0-0.1,0-0.1,0.1-0.2c0,0,0,0.1,0.1,0.1C433.4,217.4,433.4,217.4,433.3,217.4z M433.2,193.2c-0.1,0.5-0.1,0.9-0.3,1.4
			c-0.1,0.3-0.5,0.5-0.8,0.6c-0.2,0-0.8-0.3-0.8-0.5c0-0.8-0.8-0.8-1.1-1.7c0.7-0.3,1.3-0.6,1.9-0.7
			C432.8,192.1,433.3,192.6,433.2,193.2z M432,216.1c0,0-0.1,0-0.1,0.1c-0.1-0.1-0.1-0.2-0.2-0.2c0,0,0.1-0.1,0.1-0.1
			C431.9,215.9,431.9,216,432,216.1z M431,153.2c-0.4-0.1-1-0.2-1.5-0.3c-0.1-0.2-0.2-0.4-0.2-0.6c-0.2-0.8,0.4-1.4,0.8-2.1
			c0.7,0.2,1.2,0.3,1.8,0.4C431.9,151.7,432,152.6,431,153.2z M431,277.7c-0.2,0.3-0.4,0.6-0.6,0.7c-0.1,0.1-0.5-0.2-0.5-0.4
			c-0.1-0.4,0.2-0.6,0.6-0.6C430.5,277.4,430.7,277.6,431,277.7z M405.3,306.3c-0.2,0.2-0.3,0.3-0.4,0.4c-0.1-0.2-0.2-0.3-0.2-0.5
			c0-0.1,0.1-0.2,0.2-0.3C405,306,405.1,306.1,405.3,306.3z M403.3,290.6c-0.1,0.3-0.1,0.5-0.2,0.5c-0.3,0.2-0.5,0-0.6-0.3
			c0-0.1,0.1-0.3,0.1-0.3C402.8,290.5,403,290.6,403.3,290.6z M442.4,198.1c0.3,0.7,0.5,1.4,0.3,2.2c-0.7,0-1.3,0-1.8-0.5
			c-0.3-0.3-0.5-0.7-0.6-1c-0.2-0.5,0.1-0.9,0.6-1.1C441.6,197.5,442.2,197.6,442.4,198.1z M441.9,195.1c0.1-0.2,0.2-0.5,0.4-0.6
			c0.2-0.1,0.6-0.1,0.7,0.1c0.1,0.1,0.2,0.6,0.1,0.7c-0.2,0.3-0.6,0.4-1.1,0.7C442,195.6,441.8,195.3,441.9,195.1z M441.4,220.9
			c0,0.1,0,0.1,0,0.1c0,0-0.1,0-0.2,0c0-0.1,0-0.2,0.1-0.2C441.3,220.9,441.4,220.9,441.4,220.9z M440.6,228
			c-0.1,0.2-0.3,0.6-0.6,0.8c-0.4,0.2-1.1-0.4-1.1-0.9c0-0.4,0.2-0.6,0.6-0.7C440.1,227.1,440.5,227.3,440.6,228z M440.5,194.5
			c-0.5-0.1-0.9-0.2-1.3-0.4c-0.8-0.4-0.8-1-0.1-1.6c0.2-0.2,0.5-0.3,0.8-0.5c0.7,0.4,1.3,0.7,1.4,1.5
			C441.5,194.1,441.1,194.6,440.5,194.5z M439.2,220c0,0.8-0.2,1.6-0.4,2.3c-0.1,0.2-0.4,0.5-0.6,0.4c-0.3,0-0.6-0.2-0.8-0.5
			c-0.2-0.2-1-1.4-1.1-1.5c-0.1-0.1-0.1-0.2-0.2-0.7C437.2,220.2,438.1,219.5,439.2,220z M444.6,224.4c0.4-0.9,0.4-0.9,1.3-0.7
			C445.5,224.6,445.5,224.6,444.6,224.4z M447.7,234.9c0,0,0.1,0,0.1-0.1c0,0,0,0.1,0.1,0.1c0,0-0.1,0-0.1,0.1
			C447.8,235,447.7,234.9,447.7,234.9z M448.2,263.5c0.2-0.3,0.4-0.5,0.8-0.3c-0.2,0.2-0.3,0.4-0.5,0.6c-0.1,0.1-0.3,0.1-0.3,0
			C448.2,263.7,448.2,263.5,448.2,263.5z M454.8,231.1c0,0,0.1-0.1,0.1-0.1c0,0,0.1,0.1,0.1,0.1c0,0,0,0.1-0.1,0.1
			C454.9,231.2,454.9,231.1,454.8,231.1z M461.8,262.3c-1.8,0.7-1.8,0.7-2.5-0.4C460.1,261.3,460.7,261.9,461.8,262.3z M455.5,280.3
			c0.1,0.1,0.1,0.2,0.2,0.3c0,0-0.1,0.1-0.1,0.1c-0.1-0.1-0.1-0.2-0.2-0.3C455.4,280.4,455.5,280.3,455.5,280.3z M452.1,153.3
			c0.2-0.2,0.5-0.3,0.7-0.3c0.6,0,0.9-0.3,1-0.8c0.1-0.2,0.2-0.5,0.4-0.7c0.2-0.1,0.5,0,0.7,0.1c0.1,0.1,0.2,0.4,0.2,0.5
			c0,0.2-0.2,0.4-0.3,0.5c-0.7,0.6-1.4,1.2-2.2,1.9c-0.2-0.2-0.5-0.4-0.6-0.7C451.8,153.8,451.9,153.5,452.1,153.3z M449.2,228.5
			c-0.9-0.5-1.7-0.8-2.4-1.3c-0.3-0.2-0.6-0.5-0.7-0.9c-0.3-0.6,0.1-1.4,0.7-1.7c0.6-0.2,1.5,0.1,1.7,0.7c0.1,0.3,0.1,0.7,0.2,1
			c0.1,0.3,0.4,0.5,0.6,0.8C449.7,227.5,449.7,227.5,449.2,228.5z M448.2,215c0,0,0,0.1,0,0.2c-0.1,0-0.2,0-0.3,0c0,0,0-0.1,0-0.2
			C448,215,448.1,215,448.2,215z M449.5,222.4c-0.3,0.1-0.6,0.3-0.8,0.5c-0.2,0.1-0.5,0.2-0.8,0.4c-0.2-0.4-0.4-0.8-0.6-1.1
			c-0.7,0-1.2,0-1.7-0.1c-0.7-0.2-1.3-0.2-1.8,0.5c-0.2,0.3-0.6,0.3-1-0.2c0.4-0.2,0.8-0.5,1.2-0.7c0.1-0.3,0.1-0.6,0.2-0.9
			c0.1-0.7,0.5-1,1.2-1.2c0.7-0.1,1.2,0.1,1.6,0.7c0.3,0.5,0.5,1.1,0.8,1.6C448.3,222.1,449.2,221.4,449.5,222.4z M443.5,148.6
			c0-0.1,0.2-0.2,0.3-0.2c0.2,0,0.4,0.1,0.6,0.1c-0.2,0.3-0.2,0.5-0.3,0.6C443.7,149.2,443.4,148.9,443.5,148.6z M442.1,136.1
			c1.8,2.7,3.4,5.5,5.1,8.3l-90.6,16c0.4,0.3,0.7,0.7,1,1.2c0.5,0.8,1,1.6,1.5,2.5c0.4-0.1,0.7-0.2,1-0.3c0.2-0.1,0.5-0.3,0.6-0.4
			c0.6,0.1,1.1,0.5,1.1,0.9c0,0.9,0,1.8-0.2,2.6c-0.1,0.6-0.4,1.2-0.7,1.7c-0.1,0.2-0.4,0.3-0.7,0.6c-0.5-0.7-0.6-1.3-0.5-2
			c0-0.9-0.3-1.5-1.2-1.7c-0.5-0.1-0.9-0.4-1-0.9c-0.4-1.4-1.2-2.5-2.2-3.4c-0.2-0.1-0.3-0.4-0.5-0.7l-56.1,9.9
			c0.2,0.8,0.1,1.6,0.1,2.5c-0.5-0.1-0.7-0.1-0.9-0.3c-0.6-0.5-0.7-1.2-0.8-2L39.1,216.3c0.6-3.2,1.2-6.3,2-9.5
			c6.4-27.8,18-53.9,34.5-77.4s37-43.3,61-58.8c24.8-16.1,52.3-26.9,81.7-32c14.9-2.6,29.9-3.7,44.7-3.3c-0.2-0.3-0.6-0.6-0.2-1.1
			c0,0,0.1-0.1,0.2-0.1c0.7,0.1,0.6,0.8,0.7,1.2c14.2,0.4,28.3,2.2,42.3,5.5c14.2,3.3,27.9,7.9,41.1,13.8c0.3,0,0.6,0.1,0.8,0.3
			c0,0,0,0,0,0c12.4,5.6,24.2,12.4,35.5,20.3C406.8,91.6,426.6,112.1,442.1,136.1z M279.3,67.3c-0.3-0.6-0.1-1.3,0.4-1.7
			c0.3-0.3,0.7-0.3,0.9,0c0.3,0.4,0.6,0.9,0.8,1.3l15.2-2.7c-2.8-0.6-5.6-1.1-8.4-1.6l-11.4,2c0.1,0.3,0.2,0.6,0.3,1
			c0.2,0.8-0.2,1.5-0.6,2.1L279.3,67.3z M331.2,74.9L302.5,80c-0.1,0.1-0.2,0.3-0.3,0.4c-0.3,0.1-0.6,0.1-0.8-0.2l-43.1,7.6
			c-0.1,0.1-0.2,0.3-0.3,0.4c-0.1-0.1-0.3-0.2-0.3-0.3l-20.9,3.7c0.2,0,0.3,0.1,0.5,0.2c0.1,0,0.2,0.2,0.2,0.3
			c0,0.2-0.1,0.4-0.2,0.5c-0.2,0.1-0.5,0.2-0.7,0.2c-0.5,0-1.1-0.1-1.8-0.2c0.1-0.3,0.1-0.5,0.2-0.6l-105.6,18.6
			c-0.6,0.4-1.2,0.7-1.9,0.8c-0.6,0.1-1.1,0.1-1.4-0.2l-1.6,0.3c-1.3,1.2-2.7,2.5-4,3.8l133.8-23.6c0-0.1,0-0.3,0-0.4
			c0-0.1,0.2-0.2,0.3-0.4c0.6-0.1,1,0.2,1.6,0.4l59.8-10.5c-0.3-0.3-0.4-0.8-0.5-1.3c0.4,0,0.8-0.2,1.2-0.1c0.4,0.1,0.7,0.4,0.7,0.9
			c0,0.1,0,0.2,0,0.3l1-0.2c0.3-0.4,0.7-0.7,1.8-1.4c0.1,0.6-0.3,0.9-0.6,1.2l11.8-2.1c-0.4-0.5-0.8-1.1-1.3-1.7
			c1.2-0.4,1.9,0.1,2.8,0.2c0.2-0.2,0.4-0.4,0.6-0.6C332.6,75.5,331.9,75.2,331.2,74.9z M324.4,78.7c-0.5,0.1-0.8-0.1-0.8-0.5
			c0-0.2,0.2-0.4,0.3-0.8c0.4,0.3,0.8,0.4,1,0.7C325,78.2,324.7,78.6,324.4,78.7z M311.9,111.3l-0.6,3.7c0.6,0.2,1.4,0.8,1.6,1.5
			c0,0.1,0,0.3,0.1,0.4c0.2,0.8-0.2,1.3-1,1.4c-0.4,0-0.8,0-1.2-0.2l-2,11.9c0.1,0,0.2,0.1,0.3,0.1c0.1,0.1,0.3,0.3,0.3,0.5
			c0,0.2-0.1,0.5-0.3,0.5c-0.2,0-0.3,0.1-0.5,0.1l-0.7,4.5l6-1.1l0.7-5.5l8-1.4l2.5,4.9l6.2-1.1l-12.1-21.6L311.9,111.3z M315.9,111
			c0.2,0.4,0.4,0.6,0.4,0.8c0,0.3-0.1,0.7-0.5,0.6c-0.2,0-0.5-0.4-0.4-0.5C315.4,111.7,315.6,111.5,315.9,111z M315.2,124.9l0.3-2.5
			c0-0.1,0-0.2,0-0.3c0,0,0,0,0-0.1l0.4-3l0.3-3.8l0.1,0l1.7,3.5l2.6,5.2L315.2,124.9z M272.4,120.3c-1.8-1-4.1-1.3-6.9-0.8
			l-10.6,1.9l4.1,23l6-1.1l-1.4-8l4.6-0.8c2.9-0.5,4.9-1.5,6.3-3.1c1.3-1.6,1.8-3.5,1.3-5.9C275.3,123.1,274.2,121.4,272.4,120.3z
			 M257.6,122.1c-0.1,0-0.4-0.1-0.4-0.3c0-0.2,0.1-0.4,0.1-0.5c0.4,0.2,0.7,0.2,0.7,0.3C258.2,121.9,257.9,122.1,257.6,122.1z
			 M262.4,132.5c0-0.1,0-0.2-0.1-0.3c0.1,0,0.1,0,0.2,0c0,0,0,0.1,0,0.2C262.5,132.4,262.5,132.4,262.4,132.5z M269.2,129.1
			c-0.5,0.6-1.4,1-2.7,1.3l-3.6,0.6l-1.1-6.1l3.6-0.6c1.3-0.2,2.3-0.1,3,0.2c0.7,0.4,1.1,1.1,1.3,2.1
			C269.9,127.6,269.7,128.5,269.2,129.1z"/>
	</g>
</g>
</svg>
